<svg width="95" height="68" viewBox="0 0 95 68" fill="none" xmlns="http://www.w3.org/2000/svg">
<g id="BBC logo" clip-path="url(#clip0_558_3314)">
<g id="layer1">
<path id="rect3231" d="M94.9526 0.0452881H0.0476074V67.9547H94.9526V0.0452881Z" fill="url(#paint0_linear_558_3314)" fill-opacity="0.996078"/>
<g id="g3218">
<path id="path3142" d="M23.9463 35.1204C19.4382 35.1204 15.7334 38.628 15.7334 42.939C15.7334 47.2296 19.3712 50.8125 23.9255 50.8125C27.341 50.8125 30.1664 48.9424 31.4606 46.1534H29.3717C28.5009 47.5598 26.5803 49.0398 23.9731 49.0398C21.1048 49.0398 18.2561 47.2005 17.6499 43.8239H32.1305C32.1305 43.8239 32.2197 43.4143 32.2197 42.8407C32.2197 38.8115 28.7191 35.1204 23.9463 35.1204ZM23.9661 36.8666C26.9577 36.8666 29.7963 38.914 30.2913 42.0692H17.6588C18.1113 39.2209 20.6392 36.8666 23.9661 36.8666Z" fill="white"/>
<path id="path3146" d="M41.4225 35.1138C36.8619 35.1138 33.1145 38.6408 33.1145 42.9551C33.1145 47.08 36.6283 50.8135 41.4166 50.8135C44.1562 50.8135 46.2175 49.6688 47.8428 47.3939V50.389H49.6979V35.5647H47.8428V38.5296C46.3704 36.408 44.2471 35.1138 41.4225 35.1138ZM41.4334 36.8675C45.0358 36.8675 47.8399 39.6299 47.8399 42.957C47.8399 46.3791 44.9611 49.0446 41.4225 49.0446C37.9095 49.0446 34.9844 46.4008 34.9844 42.9371C34.9844 39.801 37.6429 36.8675 41.4334 36.8675Z" fill="white"/>
<path id="path3152" d="M51.9492 50.3889V35.5647H53.7884V37.9059C54.3661 36.8295 55.9606 35.5647 58.3546 35.5647H59.845V32.2065H61.7001V35.5647H64.9186V37.2891H61.7001V46.8493C61.7001 47.9048 62.5687 48.604 63.5234 48.604H64.9186V50.3889H63.4917C61.6206 50.3889 59.845 48.9093 59.845 46.9098V37.2891H58.5449C55.4981 37.2891 53.7884 39.5076 53.7884 41.3738V50.3889H51.9492Z" fill="white"/>
<path id="path3154" d="M66.092 50.3889V30.7544H67.9471V38.0455C68.4937 36.8577 70.5397 35.1154 73.1973 35.1154C76.9052 35.1154 79.4103 37.3707 79.4103 41.043V50.3889H77.6028V41.0406C77.6028 38.5687 75.8596 36.8631 73.2128 36.8631C70.266 36.8631 67.9471 39.1181 67.9471 41.3227V50.3889H66.092Z" fill="white"/>
<g id="g3182">
<g id="g3184">
<path id="path3186" d="M41.2561 25.1359C41.2561 26.4527 39.5386 26.3746 39.5386 26.3746H37.8211V23.9948H39.5386C41.3073 23.985 41.2561 25.1359 41.2561 25.1359ZM37.8211 20.3664H39.1297C40.4894 20.4347 40.4382 21.4002 40.4382 21.4002C40.4382 22.5999 38.9354 22.6195 38.9354 22.6195H37.8211V20.3664ZM40.9392 23.0877C40.9392 23.0877 42.1149 22.6098 42.1047 21.3417C42.1047 21.3417 42.2834 19.2643 39.398 19.0107H36.1956V27.7206H39.8658C39.8658 27.7206 42.9328 27.7305 42.9328 25.2627C42.9328 25.2627 43.0043 23.5851 40.9392 23.0877ZM32.6528 17.3038H46.1326V29.4231H32.6528V17.3038Z" fill="white"/>
</g>
<g id="g3188">
<path id="path3190" d="M25.7117 25.1359C25.7117 26.4527 23.9942 26.3746 23.9942 26.3746H22.2766V23.9948H23.9942C25.7628 23.985 25.7117 25.1359 25.7117 25.1359ZM22.2766 20.3664H23.5853C24.9449 20.4347 24.8938 21.4002 24.8938 21.4002C24.8938 22.5999 23.3909 22.6195 23.3909 22.6195H22.2766V20.3664ZM25.3948 23.0877C25.3948 23.0877 26.5704 22.6098 26.5602 21.3417C26.5602 21.3417 26.739 19.2643 23.8536 19.0107H20.6511V27.7206H24.3213C24.3213 27.7206 27.3883 27.7305 27.3883 25.2627C27.3883 25.2627 27.4598 23.5851 25.3948 23.0877ZM17.1084 17.3038H30.5882V29.4231H17.1084V17.3038Z" fill="white"/>
</g>
<g id="g3192">
<path id="path3194" d="M58.9272 19.6353V21.2446C58.9272 21.2446 57.2812 20.279 55.4615 20.2595C55.4615 20.2595 52.0674 20.1962 51.9141 23.3637C51.9141 23.3637 51.7914 26.2775 55.4206 26.4434C55.4206 26.4434 56.9439 26.619 59.009 25.3607V27.0286C59.009 27.0286 56.2385 28.5989 53.0284 27.3895C53.0284 27.3895 50.3294 26.4484 50.2271 23.3637C50.2271 23.3637 50.1146 20.1912 53.7133 19.1378C53.7133 19.1378 54.6744 18.7867 56.4021 18.9427C56.4021 18.9427 57.4345 19.0403 58.9272 19.6353ZM48.1975 29.4233H61.6773V17.3041H48.1975V29.4233Z" fill="white"/>
</g>
</g>
</g>
</g>
</g>
<defs>
<linearGradient id="paint0_linear_558_3314" x1="0.216546" y1="67.6864" x2="75.0703" y2="-17.7009" gradientUnits="userSpaceOnUse">
<stop stop-color="#44805F"/>
<stop offset="0.1" stop-color="#48854A"/>
<stop offset="0.2" stop-color="#418758"/>
<stop offset="0.3" stop-color="#3F8764"/>
<stop offset="0.4" stop-color="#2F8D7B"/>
<stop offset="0.5" stop-color="#22908B"/>
<stop offset="0.6" stop-color="#1E979F"/>
<stop offset="0.7" stop-color="#0F97AE"/>
<stop offset="0.8" stop-color="#0799C0"/>
<stop offset="0.9" stop-color="#009CCC"/>
<stop offset="1" stop-color="#009CCC"/>
</linearGradient>
<clipPath id="clip0_558_3314">
<rect width="95" height="68" fill="white"/>
</clipPath>
</defs>
</svg>
