<svg width="120" height="60" viewBox="0 0 120 60" fill="none" xmlns="http://www.w3.org/2000/svg">
<g id="Greenpeace logo">
<g id="Group">
<g id="Group_2">
<path id="Vector" fill-rule="evenodd" clip-rule="evenodd" d="M5.69918 28.0641C5.6779 28.1067 5.59279 28.2131 5.57151 28.2343C5.57151 28.2982 5.52896 28.3833 5.46513 28.4258C5.46513 28.5322 5.27363 28.5961 5.25235 28.7024C5.23107 28.8088 5.18852 28.9152 5.10341 28.979C5.10341 29.0854 4.93319 29.128 4.93319 29.2131C4.89063 29.2344 4.84808 29.4046 4.80552 29.4046C4.80552 29.4684 4.72041 29.511 4.72041 29.6174C4.67786 29.6387 4.6353 29.7238 4.6353 29.7876C4.55019 29.8301 4.57147 29.9365 4.48636 29.9791C4.48636 30.0429 4.42253 30.128 4.42253 30.1919C4.37997 30.1919 4.31614 30.5323 4.31614 30.5749C4.25231 30.5749 4.27359 31.1919 4.29486 31.2983C4.3587 31.5111 4.3587 31.7451 4.50764 31.8728C4.5463 31.913 4.56898 31.966 4.57147 32.0217C4.59275 32.043 4.69914 32.1281 4.72041 32.1494C4.78425 32.2132 5.12469 32.2983 5.12469 32.3196C5.29491 32.3409 5.40129 32.4473 5.55024 32.4473L6.10345 32.6175C6.10345 32.6813 6.3375 32.6601 6.3375 32.7239C6.48645 32.7452 6.65667 32.7452 6.80561 32.7664C6.95455 32.7877 7.12477 32.8728 7.29499 32.9154C7.29499 32.9792 7.63543 33.0005 7.72054 33.0005C7.93332 32.9792 8.08226 33.0431 8.25248 33.0431C8.52909 33.0431 8.78442 33.1069 9.06102 33.1069C9.06102 33.192 9.69935 33.0856 9.76318 33.0856C9.76318 33.0218 10.4441 32.9579 10.5292 32.9367L10.9334 32.8728C11.0611 32.8516 11.1037 32.7664 11.2526 32.7239C11.4228 32.6601 11.5079 32.5962 11.6782 32.5537L12.0399 32.3834C12.0824 32.2983 12.1888 32.2771 12.2314 32.2132C12.2739 32.1494 12.4016 32.043 12.4654 32.0005C12.5505 31.9366 12.6356 31.7026 12.6356 31.5962C12.7208 31.5962 12.6995 31.2132 12.6356 31.1494C12.5293 31.1068 12.508 31.0642 12.3803 31.0855C12.2101 31.1068 12.0824 31.1281 11.9122 31.1281C11.9122 31.1706 11.5292 31.2132 11.5292 31.2557C11.4228 31.2557 11.2952 31.277 11.2101 31.277C11.2101 31.3196 11.0186 31.3409 10.9547 31.3409C10.9547 31.4047 10.4228 31.3834 10.4228 31.426C10.3802 31.426 10.21 31.4472 10.21 31.4898C10.1462 31.4898 9.82701 31.4898 9.82701 31.5536C9.69935 31.5536 9.35891 31.6175 9.33763 31.6175C9.33763 31.66 8.14609 31.8515 8.0397 31.8728C7.91204 31.9153 7.86948 31.8515 7.74182 31.8728C7.63543 31.8728 7.61415 31.8302 7.52904 31.8302C7.50777 31.7664 7.48649 31.809 7.46521 31.7664C7.40138 31.7664 7.40138 31.7026 7.33755 31.6813C7.25244 31.6175 7.25244 31.5323 7.20988 31.4685C7.16733 31.426 7.12477 31.1919 7.03966 31.1919C7.01838 31.1068 6.84816 30.6812 6.80561 30.6812C6.80561 30.5961 6.78433 30.5749 6.80561 30.4685C6.82689 30.3834 6.84816 30.277 6.84816 30.2131C6.84816 30.1919 6.89072 30.0216 6.912 30.0216C6.912 29.894 6.95455 29.745 6.95455 29.6387C7.01838 29.6387 7.01838 29.2557 7.12477 29.2557C7.12477 29.1918 7.14605 29.128 7.1886 29.1067C7.20988 29.0003 7.27371 28.9365 7.33755 28.8514C7.40138 28.7663 7.59288 28.7237 7.69926 28.6812C7.74182 28.6599 8.0397 28.6599 8.0397 28.6386C8.10354 28.6386 8.57164 28.5961 8.57164 28.5322C8.67803 28.5322 8.82697 28.5109 8.95464 28.5109C9.06102 28.5109 9.12486 28.4684 9.20997 28.4684C9.20997 28.362 9.7419 28.3407 9.84829 28.3194C9.84829 28.2982 9.99723 28.2556 10.0398 28.2556C10.0398 28.2131 10.2951 28.2131 10.3377 28.2131C10.5504 28.2131 10.6781 28.1067 10.8696 28.1067C11.0611 28.1067 11.1675 28.0428 11.3803 28.0216L11.8484 28.0003C11.9548 28.0003 11.9973 27.9577 12.1037 27.9577L12.7208 27.8939L13.0186 27.8088C13.1463 27.7662 13.3165 27.745 13.4442 27.745L13.6144 27.6811C13.7208 27.6386 13.7846 27.6598 13.8697 27.6598C13.9761 27.6598 14.0825 27.6598 14.1889 27.6173C14.274 27.596 14.3804 27.5535 14.4655 27.5747C14.5081 27.596 14.8059 27.5747 14.8059 27.596C14.9123 27.596 14.9336 27.6386 15.0187 27.6386L15.423 27.7237C15.423 27.7662 15.5507 27.7662 15.5932 27.7662C15.657 27.8088 15.7209 27.8513 15.7634 27.8939C15.8485 27.9365 15.8911 28.0428 15.9124 28.1279C15.9337 28.2556 15.9975 28.3194 16.0188 28.4258C16.1039 28.4684 16.1039 28.5961 16.189 28.6173C16.2528 28.7876 16.3167 28.8727 16.3167 29.0429C16.3592 29.0429 16.3805 29.4259 16.423 29.4259C16.423 29.4897 16.5294 29.7876 16.5507 29.7876L16.6145 30.1493C16.6571 30.3195 16.5933 30.4898 16.5507 30.6387C16.5294 30.7025 16.4869 30.8302 16.423 30.8727C16.423 30.9153 16.3805 31.0004 16.3592 31.043C16.3167 31.0855 16.2528 31.1706 16.2528 31.2345C16.2315 31.2345 16.1677 31.3834 16.1677 31.426C16.1252 31.426 16.1039 31.66 16.0613 31.66C16.04 31.7026 15.9975 31.8728 15.9549 31.8728C15.9549 32.0005 15.8485 32.1494 15.8485 32.3196C15.8485 32.3196 15.6783 32.6601 15.6996 32.7026C15.7209 32.9154 15.6358 33.0005 15.5932 33.2133C15.5719 33.3197 15.5294 33.4048 15.5294 33.4899C15.5081 33.4899 15.4656 33.5963 15.4656 33.6388C15.4017 33.6388 15.4656 33.9793 15.4017 33.9793C15.3804 34.1069 15.3379 34.1282 15.3379 34.2771C15.3379 34.341 15.2528 34.7453 15.2315 34.7453C15.2315 34.7878 15.2102 34.958 15.1677 34.958C15.1677 35.1282 15.1889 35.2346 15.1677 35.4049C15.1677 35.5112 15.1251 35.5751 15.1251 35.7027C15.1251 35.7453 15.1038 35.9155 15.0613 35.9155C15.0613 36.0006 15.0187 36.0857 15.0613 36.1921C15.1038 36.3198 15.1038 36.4262 15.1038 36.5751C15.1677 36.5751 15.1464 37.1709 15.1464 37.256C15.1464 37.4688 15.0826 37.639 15.0613 37.8943C15.04 38.1284 14.8911 38.256 14.8485 38.4263C14.7421 38.4688 13.8059 39.0008 13.5931 38.9369C13.5506 38.9156 13.5719 38.8944 13.508 38.8944C13.508 38.8518 13.4016 38.8305 13.3804 38.8305C13.3165 38.8093 13.2101 38.7454 13.1889 38.7029C13.1463 38.7029 12.7846 38.5539 12.7846 38.5752C12.742 38.5752 12.6356 38.5326 12.6356 38.5114C12.5931 38.5114 12.5293 38.4901 12.508 38.4475C12.4229 38.3624 12.2101 38.3199 12.2314 38.1497C12.2314 38.0433 12.2739 38.0007 12.2101 37.8943C12.1675 37.8518 12.1675 37.6815 12.1463 37.6815L12.2101 36.8943L12.1888 36.0645C12.1888 36.0645 12.2952 35.49 12.2526 35.4049C12.2314 35.2985 12.2101 35.0857 12.1463 35.0006C12.0612 34.9155 11.9973 34.9367 11.8909 34.958C11.8909 34.9793 11.593 35.0857 11.5505 35.107C11.5505 35.1495 11.3377 35.1708 11.2952 35.1708C11.1888 35.1921 11.1249 35.2346 11.0186 35.2346C11.0186 35.3197 10.5504 35.2559 10.5504 35.3623C10.3802 35.3623 10.2526 35.4474 10.0823 35.4687C9.89085 35.49 9.80574 35.5751 9.61424 35.5751C9.44402 35.5751 9.29508 35.6389 9.10358 35.6176C8.93336 35.6176 8.82697 35.5325 8.65675 35.5964C8.48653 35.6389 8.35887 35.5751 8.20992 35.5751C8.08226 35.4261 7.89076 35.49 7.72054 35.49C7.72054 35.5538 6.48645 35.3623 6.38006 35.3623C6.38006 35.3197 5.91195 35.2772 5.91195 35.2134C5.6779 35.1921 5.55024 35.0857 5.29491 35.0644C5.18852 35.0219 5.03958 34.9155 4.91191 34.9155C4.86936 34.9155 4.76297 34.8942 4.76297 34.8516C4.69914 34.8516 4.42253 34.7665 4.42253 34.7027C4.27359 34.7027 4.14592 34.5112 3.99698 34.5112C3.99698 34.4899 3.76293 34.341 3.69909 34.341C3.63526 34.2559 3.48632 34.1495 3.44376 34.0856C3.37993 34.0856 3.27354 33.958 3.23099 33.8942C3.18843 33.8942 3.08205 33.809 3.06077 33.7665C2.97566 33.7027 2.9331 33.6601 2.9331 33.5537C2.9331 33.5537 2.82672 33.4048 2.82672 33.3622C2.80544 33.3622 2.72033 33.2133 2.72033 33.1707L2.61394 32.7239L2.55011 32.4686C2.55011 32.4473 2.48628 32.3622 2.48628 32.3409C2.48628 32.2983 2.465 31.9366 2.44372 31.9366C2.42244 31.809 2.33733 29.745 2.35861 29.745C2.35861 29.6812 2.40117 29.3195 2.44372 29.3195C2.44372 29.2982 2.52883 28.8939 2.55011 28.745C2.57139 28.6812 2.63522 28.2556 2.72033 28.2556C2.72033 28.1067 2.89055 27.979 2.9331 27.8088C3.06077 27.745 3.08205 27.5109 3.20971 27.4683C3.20971 27.362 3.37993 27.3407 3.37993 27.2343C3.46504 27.1705 3.48632 27.0641 3.57143 27.0215C3.57143 26.9577 3.67782 26.9364 3.67782 26.8513C3.7842 26.7662 3.84804 26.7024 3.91187 26.596C3.95442 26.5534 3.9757 26.447 4.06081 26.4257C4.08209 26.3406 4.10337 26.3406 4.1672 26.2768C4.1668 26.2549 4.17257 26.2333 4.18386 26.2145C4.19514 26.1956 4.21149 26.1804 4.23103 26.1704C4.29486 26.1066 4.52892 25.7023 4.57147 25.7023C4.59275 25.5746 4.67786 25.4683 4.78425 25.3832C4.8268 25.3406 4.86936 25.2129 4.95447 25.2129C4.97574 25.1704 5.0183 25.1917 5.0183 25.1491C5.08213 25.1491 5.06085 25.1065 5.10341 25.0853C5.10341 25.0214 5.27363 24.8725 5.33746 24.8725C5.40129 24.7874 5.44385 24.7661 5.52896 24.7235C5.65662 24.6384 6.20984 23.9788 6.3375 23.9363C6.35878 23.8937 6.46517 23.8724 6.50772 23.8724C6.50772 23.8512 6.69922 23.7448 6.7205 23.7448C6.74178 23.7022 7.44393 23.149 7.61415 22.9362C7.67799 22.9362 7.7631 22.8511 7.80565 22.8086C7.89076 22.766 7.91204 22.7235 7.97587 22.6596C8.01843 22.6596 8.06098 22.6171 8.10354 22.5958L8.2312 22.4681C8.29503 22.4043 8.25248 22.4043 8.29503 22.3617C8.38014 22.2766 8.52909 22.2554 8.63547 22.1702C8.67803 22.1277 8.74186 21.9788 8.82697 21.9788C8.8908 21.8724 8.95464 21.8085 9.06102 21.7873C9.14613 21.6383 9.35891 21.6383 9.44402 21.5532C9.48657 21.5106 9.59296 21.4255 9.65679 21.4255C9.67807 21.3617 9.82701 21.3404 9.89085 21.3191C9.89085 21.2766 10.0823 21.2766 10.0823 21.234C10.1249 21.234 10.2526 21.1915 10.2526 21.1702C10.3802 21.1277 10.4441 21.1064 10.593 21.1064C10.593 21.0638 10.8483 21.0638 10.9122 21.0638C11.0824 21.0638 11.2526 21.0638 11.4228 21.0851C11.5079 21.0851 11.593 21.0425 11.6994 21.0638C11.9122 21.0851 12.0612 21.1702 12.2526 21.1702C12.2952 21.1702 12.4654 21.1915 12.4654 21.234C12.5505 21.2553 12.6995 21.2979 12.7846 21.3404C12.9974 21.4681 13.1676 21.6596 13.4016 21.8724C13.5293 22 13.6995 22.1702 13.7421 22.3405C13.8272 22.383 13.891 22.6809 13.9336 22.6809C13.9336 22.8937 14.0187 23.0852 14.04 23.298C14.1038 23.298 14.2102 23.6597 14.2102 23.7235C14.2315 23.7235 14.2527 24.0852 14.3166 24.0852C14.3166 24.2129 14.3591 24.2767 14.3378 24.4044C14.3166 24.5321 14.2527 24.6384 14.2527 24.7661C14.2315 24.7661 14.1889 24.8938 14.1889 24.915C14.1038 24.9789 14.04 25.064 13.9548 25.1491C13.8697 25.2342 13.4229 25.298 13.4229 25.3619C13.2527 25.3619 13.125 25.447 12.9548 25.4257C12.8697 25.4257 12.7846 25.4044 12.6995 25.3832C12.6356 25.3619 12.6144 25.2768 12.5505 25.2342C12.5505 25.1491 12.4229 25.1278 12.4229 25.0214C12.359 25.0002 12.3165 24.8512 12.3165 24.8087C12.2526 24.8087 12.2314 24.4895 12.125 24.4469C12.125 24.4257 11.976 24.1065 11.9548 24.1065C11.9548 23.9788 11.7633 23.8299 11.6782 23.7235C11.6143 23.6384 11.4867 23.6597 11.4441 23.5746C11.3164 23.5533 11.2313 23.5107 11.1675 23.6171C11.1037 23.6171 11.0398 23.681 10.976 23.7022C10.8696 23.7235 10.8058 23.8086 10.7207 23.8299C10.6994 23.8299 10.5504 23.915 10.5504 23.915C10.4866 23.915 10.4228 23.9576 10.3377 23.9788C10.3377 24.0214 10.1462 24.0639 10.1036 24.1065C10.0185 24.1703 9.89085 24.2129 9.80574 24.2554C9.7419 24.2554 9.63552 24.3406 9.59296 24.4044C9.48657 24.4257 9.42274 24.5108 9.31635 24.5108C9.31635 24.5321 9.18869 24.5746 9.14613 24.5746C9.0823 24.6384 8.93336 24.7448 8.91208 24.8087C8.69931 24.8725 8.50781 25.0853 8.35887 25.2555C8.2312 25.2768 8.16737 25.3832 8.06098 25.4895C7.97587 25.5959 7.86948 25.6598 7.78437 25.7661C7.72054 25.83 7.63543 25.9789 7.55032 25.9789C7.48649 26.064 7.25244 26.213 7.25244 26.3194C7.16733 26.3832 7.03966 26.447 7.03966 26.5321C6.97583 26.5747 6.84816 26.7449 6.78433 26.7449C6.76305 26.7875 6.7205 26.7662 6.7205 26.8087C6.65667 26.8513 6.67794 26.9151 6.61411 26.9364C6.61411 27.0428 6.50772 27.0641 6.46517 27.1279C6.40134 27.213 6.20984 27.3194 6.20984 27.4258C6.18856 27.4258 6.14601 27.5322 6.12473 27.5535C6.0609 27.6173 5.97579 27.7237 5.95451 27.8301C5.91195 27.8726 5.80557 28.0641 5.69918 28.0641ZM32.1684 26.6172C32.1471 26.7024 32.062 26.7875 31.9769 26.83C31.9343 26.9577 31.8918 27.0215 31.8918 27.1705C31.8279 27.4045 31.7428 27.6386 31.9556 27.8088C31.9556 27.8513 32.1046 27.8939 32.1471 27.9152C32.2748 27.9152 32.3599 27.9365 32.4876 27.9365C32.4876 27.9577 33.1684 27.9365 33.1684 27.8939C33.211 27.8939 33.3599 27.8513 33.3599 27.8301C33.4876 27.8088 33.5727 27.7875 33.7004 27.7875C33.7429 27.7875 34.1472 27.745 34.1472 27.7237L34.8919 27.596C34.9557 27.4471 35.2536 27.4258 35.4238 27.4258C35.6153 27.4258 35.7856 27.3832 35.9771 27.3832C36.1047 27.3832 36.3601 27.4471 36.3601 27.596C36.4239 27.6386 36.4877 27.7237 36.509 27.8088C36.5516 27.9152 36.5941 27.9577 36.6367 28.0641C36.6579 28.0641 36.8069 28.4046 36.8069 28.4471C36.8282 28.6173 36.9133 28.6599 36.9345 28.8727C36.9345 28.979 36.9771 29.0429 36.9984 29.1705L37.0835 29.6174C37.126 29.6174 37.2324 30.0855 37.2324 30.1706C37.2324 30.3195 37.0835 30.4472 36.9558 30.4472C36.892 30.5536 36.7643 30.5536 36.6367 30.5749C36.6367 30.5961 36.509 30.66 36.4877 30.66C36.3813 30.6812 36.2537 30.7025 36.126 30.7025C35.9983 30.7451 35.8494 30.7876 35.7005 30.7876C35.4664 30.7876 35.2536 30.8515 35.0409 30.8515C34.9557 30.8515 34.8281 30.8515 34.7004 30.8302C34.594 30.8089 34.4876 30.8515 34.3387 30.8515C34.2536 30.8515 33.594 30.8727 33.594 30.9153C33.3386 30.9366 33.211 31.0004 32.9769 31.0004C32.9769 31.0217 32.5939 31.1068 32.5301 31.1068C32.4237 31.1068 32.3173 31.1494 32.2322 31.1494H31.8279C31.7428 31.1494 31.7003 31.1919 31.6152 31.1919C31.5088 31.1919 31.445 31.2345 31.3598 31.2345C31.3598 31.2983 31.1896 31.2557 31.1896 31.3196C31.1258 31.3196 31.0407 31.3834 30.9768 31.426C30.9768 31.4898 30.8705 31.6175 30.8066 31.6387C30.7428 31.7238 30.7641 31.809 30.7428 31.8941C30.679 32.1281 30.7641 32.2132 30.8917 32.4047C30.9556 32.4047 31.0194 32.4898 31.1045 32.4898C31.1045 32.5111 31.2322 32.5537 31.2747 32.5537C31.2747 32.6175 31.5939 32.7026 31.679 32.7239C31.679 32.7664 32.1897 32.7664 32.1897 32.8516C32.2748 32.8516 32.3386 32.8941 32.4663 32.8941C32.4663 33.0005 32.7642 32.8941 32.8067 32.8728C32.9982 32.8728 33.1684 32.809 33.3174 32.809C33.3174 32.7664 33.594 32.7239 33.6578 32.7239C33.6578 32.6601 33.9131 32.5537 33.977 32.4898C34.0408 32.4898 34.0834 32.426 34.1472 32.426C34.2323 32.426 34.2961 32.4047 34.3812 32.4047C34.4876 32.4047 34.5089 32.426 34.594 32.4898C34.6366 32.5111 34.7217 32.6175 34.7217 32.6175C34.8068 32.6813 35.0196 33.0431 35.0834 33.0856C35.1685 33.1494 35.3813 33.5537 35.4026 33.7452L35.4877 34.192C35.4877 34.2346 35.4664 34.3623 35.4451 34.3623C35.4451 34.4474 35.4238 34.5538 35.4238 34.6601C35.4026 34.6601 35.36 35.0006 35.36 35.0644C35.3175 35.0644 35.2749 35.4261 35.2749 35.49C35.1898 35.5325 35.2323 35.6389 35.1472 35.7027C35.1472 35.9155 34.6579 36.2134 34.6579 36.1283C34.8919 36.1283 33.3387 36.5964 33.3387 36.5113C33.2323 36.5326 33.1472 36.49 33.0408 36.4475C32.9131 36.4262 32.8493 36.4049 32.7216 36.4049C32.5727 36.3836 32.3812 36.2772 32.2109 36.2772L31.8492 36.1708C31.7003 36.1283 31.5726 36.0432 31.4024 36.0432C31.4024 36.0006 31.2535 36.0219 31.2535 35.9793L30.913 35.9155C30.913 35.8091 30.4449 35.873 30.4449 35.7453C30.4024 35.7453 30.0832 35.6176 30.0832 35.5751C29.9981 35.5538 29.913 35.49 29.8704 35.4261C29.764 35.4261 29.7215 35.2772 29.6364 35.2772C29.6151 35.2346 29.4874 35.1495 29.4236 35.1495C29.381 35.107 29.2746 35.0006 29.2108 35.0006C29.147 34.9367 29.1257 34.9155 29.1257 34.8091C29.1044 34.8091 29.0831 34.7453 29.0619 34.724C29.0619 34.724 28.8917 34.6601 28.8704 34.6176C28.8278 34.575 28.764 34.5538 28.764 34.4899C28.7002 34.4686 28.7427 34.4474 28.7002 34.4261C28.7002 34.3197 28.5299 34.2771 28.5299 34.192C28.4874 34.1708 28.4661 34.1069 28.4448 34.0644C28.4235 33.958 28.4235 34.0856 28.4235 33.9367C28.4235 33.9367 28.3597 33.8303 28.3597 33.809C28.2746 33.7665 28.232 33.4686 28.1895 33.4686C28.1895 33.3197 28.0831 33.1707 28.0831 33.0218C28.0193 33.0218 28.0831 32.3196 27.998 32.3196C27.998 32.2132 27.9554 32.192 27.9554 32.0643C27.9129 32.0643 27.9342 31.66 27.9342 31.6175C27.9342 31.5536 28.0193 31.1068 27.998 31.1068C27.998 30.9791 28.0193 30.8302 28.0193 30.7238C28.0193 30.6387 28.0831 30.5961 28.0831 30.511C28.0831 30.1493 28.2533 29.894 28.3172 29.5748C28.3597 29.3833 28.4661 29.2769 28.4661 29.0854C28.5087 29.0642 28.5512 28.9578 28.5512 28.9152C28.5725 28.9152 28.615 28.8088 28.615 28.7663C28.6576 28.745 28.6789 28.6386 28.7002 28.6386C28.7002 28.6173 28.7853 28.4258 28.8065 28.4258C28.8491 28.2343 28.9555 28.1279 28.998 27.9365C29.0406 27.9365 29.0406 27.5109 29.1044 27.5109C29.1683 27.2981 29.0193 27.0641 28.8704 26.9364C28.8704 26.9151 28.8491 26.83 28.8065 26.83C28.8065 26.7236 28.7214 26.7449 28.6789 26.6598C28.6363 26.5747 28.5087 26.4896 28.5087 26.4257C28.4661 26.4257 28.4874 26.3194 28.4874 26.2768C28.4023 26.213 28.381 26.1704 28.3172 26.0853C28.2108 25.9151 28.2533 25.5959 28.2533 25.447C28.2533 25.2555 28.2108 25.064 28.2533 24.8512C28.2746 24.7235 28.2746 24.5959 28.2746 24.4895L28.381 24.2554C28.4661 24.2129 28.5299 24.0001 28.6363 24.0001C28.6576 23.9576 28.7214 23.915 28.764 23.8937C28.764 23.8299 28.8278 23.8086 28.8704 23.7661C28.9768 23.6597 29.1044 23.5533 29.2534 23.4895C29.4023 23.4256 29.5725 23.4682 29.7428 23.4682C29.9768 23.4469 30.1045 23.298 30.3172 23.2128C30.5513 23.1277 30.6364 23.0639 30.9343 23.0213C30.9343 23.0001 31.1258 22.9575 31.1683 22.9575C31.2822 22.954 31.3962 22.9611 31.5088 22.9788C31.6152 22.9788 31.6577 22.9362 31.7641 22.915C31.8918 22.8937 33.062 22.6171 33.0833 22.6171C33.0833 22.5532 33.5727 22.4894 33.6578 22.4469C33.7642 22.4043 33.7642 22.383 33.8919 22.383C33.977 22.383 34.0621 22.3405 34.1472 22.3405C34.2961 22.3405 34.5727 22.2341 34.6153 22.2128C34.7004 22.1915 34.743 22.1702 34.8493 22.149C34.9983 22.149 35.0834 22.1064 35.2323 22.0851C35.2536 22.0851 35.4664 22.0213 35.4664 22.0213C35.6792 22.0213 35.8281 21.9575 36.0196 21.9575C36.0196 21.9788 36.6154 21.9149 36.7005 21.9149C36.7643 21.9149 37.2324 21.8724 37.2324 21.9575C37.3388 21.9788 37.3814 22.0851 37.4878 22.1064C37.5516 22.1915 37.6154 22.2979 37.7005 22.3617C37.7218 22.4469 37.8069 22.5745 37.892 22.6171C37.892 22.6384 37.9771 22.7873 37.9984 22.7873C37.9984 22.8299 38.0623 22.9575 38.0835 22.9575C38.1048 23.0852 38.1686 23.2554 38.1686 23.3405C38.2538 23.3405 38.2963 23.681 38.3814 23.681C38.4027 23.7873 38.4665 23.9363 38.4665 24.0214C38.4878 24.0214 38.5729 24.1916 38.5729 24.2342C38.658 24.2767 38.6367 24.4044 38.6367 24.4895C38.6367 24.5746 38.658 24.6172 38.5729 24.6597C38.5516 24.7448 38.5091 24.7023 38.5091 24.7874C38.5091 24.9363 38.4665 24.9576 38.3389 25.0427C38.2325 25.1065 38.1261 25.1704 38.041 25.1704C38.041 25.2342 37.7431 25.2555 37.658 25.2555C37.5303 25.2555 37.4665 25.3406 37.3175 25.3406C37.2537 25.3406 36.7856 25.4257 36.7856 25.4257C36.6579 25.4257 36.5516 25.5108 36.4026 25.5108C36.2749 25.5108 36.1898 25.5746 36.0834 25.5746C35.9132 25.5746 35.743 25.6385 35.5728 25.6385C35.4238 25.6385 35.3387 25.7023 35.1898 25.7023C35.0196 25.7023 34.9557 25.7661 34.8068 25.7661C34.7004 25.7661 34.6366 25.83 34.5302 25.83C34.5302 25.9151 34.1897 25.9364 34.1046 25.9364C34.0408 25.9364 33.7429 26.0002 33.7429 26.0215C33.594 26.0215 33.5514 26.0853 33.4025 26.0853C33.4025 26.1491 33.1897 26.1279 33.1897 26.1704C33.1472 26.1704 32.9344 26.1704 32.9344 26.213C32.8705 26.213 32.8493 26.2555 32.7854 26.2555C32.7854 26.3194 32.4876 26.3194 32.4237 26.3194C32.5088 26.4257 32.2322 26.596 32.1684 26.6172Z" fill="#8DC63F"/>
<path id="Vector_2" fill-rule="evenodd" clip-rule="evenodd" d="M40.8495 31.5535C40.807 31.6812 40.6793 31.7025 40.6367 31.8088C40.5942 31.9365 40.5729 32.0855 40.5942 32.2131C40.6155 32.3621 40.7431 32.4046 40.807 32.5323C40.8708 32.5536 41.1474 32.6387 41.1474 32.6812C41.19 32.6812 41.4878 32.7238 41.4878 32.7663C41.5942 32.7663 41.7645 32.8302 41.8496 32.8302C41.8496 32.9366 42.956 32.9366 42.956 32.8727C42.9773 32.8727 43.1049 32.894 43.1475 32.894C43.1688 32.894 43.3177 32.9366 43.3177 32.894C43.4241 32.894 43.3177 32.8727 43.4028 32.8727C43.4028 32.7876 43.7645 32.7876 43.8496 32.7876C43.8496 32.7025 44.1263 32.7451 44.1901 32.6599C44.2539 32.6599 44.3603 32.5536 44.4029 32.4897C44.488 32.4897 44.5093 32.3621 44.6156 32.3621C44.6369 32.3195 44.7646 32.2557 44.8071 32.2557C44.8071 32.2557 44.9774 32.1918 45.0199 32.1918C45.2114 32.1493 45.254 32.3195 45.4242 32.3833C45.4242 32.4259 45.4667 32.511 45.488 32.5536C45.5306 32.6387 45.6157 32.6812 45.6795 32.7451C45.7221 32.7876 45.7221 32.8089 45.7221 32.894C45.7221 33.0004 45.7646 32.9791 45.7859 33.0642C45.8072 33.1493 45.8923 33.2132 45.8923 33.277C45.8923 33.3408 46.0412 33.511 46.0412 33.6174C46.1689 33.6813 46.1902 34.2345 46.1902 34.3621C46.2114 34.5111 46.1689 34.6175 46.1476 34.7451C46.1263 34.8728 46.1051 35.0005 46.1051 35.1281C46.0838 35.1281 46.0412 35.2771 46.0412 35.3196C46.02 35.4686 45.9348 35.6814 45.7859 35.7452C45.7221 35.9367 45.5518 35.9792 45.3604 36.0218C45.2965 36.0431 44.9561 36.1282 44.9561 36.1707C44.8497 36.192 44.7859 36.2346 44.6582 36.2558C44.5305 36.2558 43.5943 36.4048 43.4879 36.4048C43.3603 36.4261 42.7858 36.5537 42.7219 36.4686C42.6581 36.4686 42.7007 36.4261 42.6368 36.4261C42.6368 36.3835 42.4453 36.4261 42.4241 36.4261C42.3177 36.4261 42.2964 36.4473 42.1687 36.4048C42.0623 36.3622 42.0411 36.3622 41.9347 36.3835C41.8283 36.4261 41.573 36.3197 41.5304 36.2346C41.4666 36.2346 41.424 36.192 41.3389 36.192C41.2538 36.192 41.1687 36.1495 41.0836 36.1495C41.0623 36.1495 40.8921 36.0643 40.8921 36.0431C40.8282 36.0431 40.5091 36.0431 40.5091 35.9792C40.424 35.9792 40.1048 35.8941 40.1048 35.8516C39.9984 35.8303 39.8495 35.8303 39.8069 35.7452C39.7218 35.7452 39.658 35.5962 39.5729 35.5537C39.5516 35.4686 39.4878 35.4686 39.4878 35.3622C39.4665 35.3622 39.4239 35.2558 39.4239 35.2132L39.2537 35.0217C39.2537 34.9366 39.1899 34.8941 39.1899 34.809C39.1048 34.809 39.0409 34.4473 38.9771 34.4473C38.9558 34.3621 38.892 34.277 38.8494 34.2345C38.7856 34.1706 38.6154 34.1281 38.6154 34.0217C38.5728 34.0004 38.5516 33.9791 38.5516 33.9366C38.4877 33.894 38.5303 33.8515 38.4664 33.8302C38.4664 33.8089 38.4026 33.6813 38.3813 33.6813C38.3813 33.6174 38.2749 33.2132 38.2324 33.2132C38.2324 33.1706 38.1686 32.6387 38.1686 32.6387C38.126 32.4897 38.126 32.2982 38.1473 32.1493C38.1686 31.9365 38.2111 31.7663 38.2111 31.5322C38.2324 31.2131 38.3601 30.9152 38.3813 30.596C38.3813 30.5109 38.4239 30.1492 38.4877 30.1492C38.4877 30.0854 38.5516 29.6811 38.5941 29.6811C38.5941 29.596 38.6154 29.4896 38.6154 29.3832C38.6367 29.3832 38.6792 29.2343 38.6792 29.1917C38.7005 29.1917 38.7643 28.7874 38.7643 28.7236C38.7643 28.6385 38.8069 28.1704 38.8494 28.1704L38.9984 27.7236C38.9984 27.5746 39.1473 27.4044 39.2112 27.2555C39.2324 27.2555 39.275 27.0427 39.3388 27.0214C39.3388 26.9363 39.4027 26.8937 39.4027 26.8086C39.4452 26.8086 39.4878 26.6384 39.5303 26.5959C39.5303 26.532 39.6154 26.4469 39.6367 26.3618C39.658 26.3618 39.7856 26.0001 39.7856 25.9575C39.8069 25.9575 39.892 25.7235 39.892 25.6809C39.9346 25.6809 40.0623 25.2128 40.0623 25.1703C40.0835 25.1703 40.1048 24.5745 40.1048 24.4894C40.1048 24.3617 40.1048 24.2341 40.1261 24.1277C40.1474 24.0638 40.1686 24.0851 40.1686 24.0213C40.2325 23.9787 40.2325 23.9362 40.275 23.8936C40.3389 23.8298 40.424 23.8085 40.4878 23.7447C40.5516 23.6596 40.6367 23.617 40.7219 23.5957C40.8495 23.5532 41.3602 23.3191 41.3602 23.2978C41.4878 23.2978 41.3389 23.2766 41.4878 23.2766C41.4878 23.2127 41.5517 23.2766 41.573 23.2766C41.573 23.234 41.7645 23.2553 41.7645 23.1915C41.807 23.1915 42.0411 23.1489 42.0411 23.1276C42.2326 23.1276 42.4453 23.0638 42.6581 23.0425C42.7858 23.0212 42.8283 23 42.956 23C43.0624 23 43.1688 22.9574 43.2964 22.9361C43.2964 22.8723 43.7858 22.9361 43.7858 22.851C43.8709 22.851 44.3178 22.8297 44.3178 22.7659C44.5092 22.7446 44.722 22.7234 44.9135 22.6595C44.9561 22.6382 45.0412 22.617 45.0412 22.5957C45.105 22.5957 45.3178 22.5531 45.3178 22.5319C45.4029 22.5319 45.871 22.5531 45.871 22.468C45.9561 22.468 45.9987 22.4255 46.1051 22.4255L46.3391 22.3616C46.4242 22.3616 46.4881 22.3191 46.6157 22.3191C46.7434 22.3191 46.8711 22.2978 46.9987 22.2552C47.0838 22.234 47.8498 22.2552 47.8498 22.2978C47.9988 22.2978 48.1264 22.4042 48.2966 22.4042C48.2966 22.4467 48.3392 22.4042 48.3392 22.4467C48.4243 22.4467 48.4669 22.5106 48.5307 22.5531C48.5945 22.5957 48.8286 22.851 48.8711 22.851C48.9137 23.0638 48.9988 23.2978 49.2116 23.4468C49.2116 23.4893 49.2754 23.5745 49.2967 23.617C49.3392 23.6596 49.3392 23.7021 49.3605 23.7447C49.3801 23.7546 49.3964 23.7699 49.4077 23.7887C49.419 23.8075 49.4248 23.8291 49.4244 23.8511C49.4456 23.8511 49.5946 24.1489 49.5946 24.1915C49.6371 24.4256 49.5095 25.0639 49.3605 25.1703C49.2967 25.2128 49.2329 25.2341 49.169 25.2554C48.935 25.2767 48.7435 25.3405 48.4881 25.2979C48.3605 25.2767 47.5519 25.4469 47.4881 25.4469C47.403 25.4469 47.2966 25.4894 47.2115 25.4894C47.2115 25.5107 47.0838 25.5533 47.0626 25.5533C47.0626 25.5958 46.8498 25.5958 46.7859 25.5958C46.7859 25.5745 46.6157 25.6384 46.5519 25.6384C46.1051 25.6384 45.6795 25.7235 45.2327 25.7235C44.9986 25.7235 44.0837 25.8511 44.0837 25.8937C44.0411 25.8937 43.8709 25.9575 43.8709 25.9788C43.7858 25.9788 43.7433 26.0214 43.6582 26.0426C43.573 26.0639 43.5305 26.1703 43.4454 26.1703C43.4241 26.2129 43.2964 26.298 43.2326 26.298C43.2113 26.3405 43.1688 26.3405 43.1262 26.3831C43.0837 26.4469 43.0198 26.4682 42.9773 26.5533C42.9134 26.5959 42.8496 26.6597 42.7858 26.7022C42.7645 26.7874 42.7432 26.8725 42.7007 26.9363C42.6581 27.0427 42.6156 27.1916 42.5304 27.2555C42.5304 27.298 42.4453 27.4257 42.4028 27.447C42.2751 27.5321 42.3177 27.6597 42.3177 27.7661C42.4241 27.83 42.4453 27.9151 42.5943 27.9363C42.7219 27.9576 42.7858 27.9151 42.8922 27.9151C42.8922 27.8725 43.4454 27.8938 43.4454 27.83C43.5518 27.83 44.4029 27.7023 44.4029 27.6385C44.5731 27.6385 44.722 27.5746 44.871 27.5321C44.871 27.4682 45.1901 27.4257 45.1901 27.3831C45.3178 27.3618 45.4242 27.3831 45.488 27.298C45.5306 27.298 45.6582 27.2129 45.6795 27.1916C45.7221 27.1704 46.02 27.1065 46.02 27.064C46.0838 27.064 46.1689 27.0001 46.254 26.9789C46.3391 26.9789 46.3817 27.0214 46.4455 27.0214C46.4455 27.0214 46.5732 27.1065 46.6157 27.1065C46.637 27.1704 46.7008 27.1704 46.7647 27.1704C46.8498 27.1916 46.8072 27.1916 46.8711 27.2342C46.9349 27.2767 46.9349 27.3193 46.9987 27.3831C47.0413 27.4257 47.1264 27.4895 47.1264 27.5533C47.2328 27.6172 47.3604 27.8938 47.3604 28.0215C47.4455 28.0215 47.5094 28.3832 47.5732 28.3832C47.5732 28.4257 47.6158 28.5321 47.6583 28.5534C47.6583 28.5747 47.7222 28.7236 47.7222 28.7236C47.7222 28.8087 47.7647 28.8938 47.7647 28.9789V29.2768C47.6796 29.2768 47.8073 29.8513 47.7222 29.8513C47.7222 29.9364 47.637 30.1279 47.5307 30.1918C47.5307 30.3194 47.254 30.4045 47.1689 30.4045C47.1689 30.4471 47.02 30.4258 47.02 30.4684C46.8923 30.4896 46.8072 30.5322 46.6796 30.5535C46.4881 30.5748 46.4029 30.6811 46.2115 30.7024L45.9561 30.7662C45.9561 30.8301 45.7859 30.8301 45.7859 30.8514L45.1689 30.9365C45.1689 31.0003 43.6582 31.1492 43.5943 31.1492C43.5943 31.1705 43.4454 31.2131 43.4028 31.2131C43.4028 31.2131 42.7858 31.3195 42.7858 31.2344C42.7432 31.2344 42.7432 31.2769 42.6794 31.2769C42.6156 31.2982 42.5304 31.2982 42.4666 31.3195C42.3177 31.3407 42.1687 31.3407 42.0198 31.3195C42.0198 31.3833 41.5517 31.3833 41.5517 31.4471C41.4666 31.4471 41.4027 31.4897 41.3176 31.4897H41.1049C40.9772 31.4684 40.8708 31.5322 40.8495 31.5535ZM83.2769 23.3191C83.3832 23.3191 83.4896 24.1915 83.4471 24.1915V24.6809C83.4471 24.8085 83.4045 24.9362 83.3407 25.0426C83.2981 25.0639 83.1279 25.2128 83.1279 25.2128C83.0854 25.2128 82.8088 25.3618 82.8088 25.383C82.6385 25.383 82.4683 25.4894 82.2981 25.4894L81.7449 25.5745C81.447 25.6809 81.1491 25.7022 80.8725 25.7448C80.8725 25.8086 80.4044 25.766 80.4044 25.8299C80.2129 25.8299 80.0427 25.9363 79.8086 25.9575C79.7235 25.9575 79.3192 26.0214 79.3192 26.0852C79.2129 26.0852 79.0852 26.1278 78.9788 26.1278C78.9788 26.1703 78.7873 26.1916 78.7235 26.1916C78.5107 26.2129 78.4043 26.2767 78.1703 26.3193C78.1703 26.3618 77.7873 26.4256 77.7234 26.4256C77.7234 26.5107 77.1915 26.5533 77.0851 26.5533C77 26.5746 76.9362 26.6384 76.8511 26.6384C76.8511 26.681 76.617 26.7022 76.5532 26.7022C76.5532 26.7235 76.1276 26.7874 76.1276 26.8512C76.0851 26.8512 75.9361 26.8725 75.9361 26.915C75.8723 26.915 75.8297 27.0001 75.7446 27.0001C75.7021 27.0852 75.5744 27.1278 75.5744 27.2129C75.5106 27.2555 75.4467 27.3406 75.4255 27.4257C75.4042 27.4682 75.3404 27.5746 75.3404 27.5746C75.3191 27.6597 75.2978 27.6385 75.2765 27.7236C75.234 27.7448 75.1914 27.8087 75.1914 27.8512C75.1488 27.8938 75.0212 28.0215 75.0212 28.064C74.9786 28.0853 74.9361 28.2555 74.9148 28.2555C74.9148 28.3193 74.9361 28.3832 74.9361 28.4683L75.1063 28.5321C75.1701 28.6172 75.234 28.6811 75.3191 28.6811C75.3191 28.7662 75.851 28.6811 75.9361 28.6811C76.2127 28.6811 76.4893 28.6598 76.7659 28.5959C76.8936 28.5747 77.0213 28.5747 77.1702 28.5747C77.1702 28.5321 77.383 28.5321 77.4468 28.5321C77.4468 28.5108 78.0213 28.4896 78.0213 28.4257C78.0851 28.4257 78.3192 28.4044 78.3192 28.3619C78.4256 28.3406 78.532 28.2768 78.6384 28.2768C78.6384 28.2555 78.9575 28.1066 79.0214 28.1066C79.0852 28.1066 79.1916 28.064 79.2129 28.0002C79.2554 28.0002 79.3405 27.9576 79.3618 27.9363C79.4044 27.8938 79.4895 27.8512 79.5746 27.83C79.6171 27.7661 79.7873 27.7023 79.7873 27.6597C79.9576 27.6597 80.0852 27.7236 80.2342 27.7874C80.3193 27.83 80.4895 27.9363 80.4895 28.0427C80.5533 28.0427 80.5533 28.2555 80.6172 28.2555L80.7874 28.7236C80.8087 28.7236 80.9151 29.064 80.9151 29.1066C80.9151 29.1492 81.0427 29.4683 81.0427 29.4683C81.0427 29.5322 81.1278 30.1918 81.0427 30.1918C81.0427 30.2556 80.9789 30.4471 80.9363 30.4471C80.9363 30.4684 80.8725 30.6173 80.8725 30.6173C80.8725 30.7024 80.8299 30.7875 80.7661 30.8726C80.7236 30.9365 80.4682 31.0429 80.4682 31.0641C80.447 31.0641 80.298 31.1492 80.298 31.1492C80.2129 31.1492 80.1491 31.2131 80.064 31.2131C80.0427 31.2131 79.8299 31.2556 79.8299 31.2769C79.7022 31.2769 79.5746 31.2982 79.4256 31.3195L78.1064 31.511C77.9362 31.511 75.0637 31.9365 74.8297 31.9365C74.5744 31.9365 74.4467 32.0003 74.1701 32.0003C73.9999 32.0003 73.8935 32.1067 73.7445 32.1493C73.6807 32.1706 73.6169 32.1706 73.5743 32.2344C73.5105 32.2344 73.5318 32.2982 73.4679 32.2982C73.4041 32.3621 73.3403 32.4684 73.2764 32.511C73.2552 32.6174 73.2764 32.7025 73.2764 32.8089C73.319 32.8089 73.4041 33.0217 73.4679 33.0642L73.6381 33.2344C73.7233 33.2344 73.8296 33.3195 73.8722 33.3834C73.936 33.3834 74.0424 33.4898 74.085 33.5323C74.1701 33.5323 74.1914 33.5962 74.2765 33.5962C74.2765 33.6387 74.7446 33.6813 74.8297 33.7025C75.1063 33.7238 75.4042 33.66 75.6595 33.5962C75.7021 33.5749 75.9574 33.5536 75.9574 33.5323C76 33.5323 76.1702 33.4685 76.1702 33.4472C76.2766 33.4259 76.2978 33.3834 76.4255 33.3621C76.4255 33.3195 76.5957 33.3408 76.5957 33.2983C76.6383 33.2983 76.7659 33.277 76.7659 33.2344C76.8936 33.2132 76.9574 33.2344 77.0213 33.128C77.1277 33.128 77.2553 33.0004 77.3617 33.0004C77.3617 33.0004 77.6596 32.8727 77.7022 32.8727C77.7022 32.8514 78.149 32.7663 78.2128 32.7663C78.3618 32.7451 78.4681 32.9153 78.5745 33.0004C78.6384 33.0429 78.6596 33.1493 78.7235 33.1919C78.7447 33.2557 78.7873 33.4685 78.8299 33.4685C78.8724 33.6387 78.9575 33.7238 78.9575 33.8728C79.0426 33.8728 79.0214 34.5536 79.0214 34.66C79.0852 34.66 79.0214 35.1707 79.0214 35.2132C79.0001 35.2132 78.9788 35.5537 78.9575 35.6175C78.915 35.7239 78.8724 35.8941 78.7873 35.9367C78.7873 36.0431 78.5532 36.1707 78.4894 36.2558C78.4469 36.2984 78.3405 36.3835 78.2766 36.3835C78.2766 36.4048 78.1703 36.4473 78.149 36.4473C78.1064 36.5112 77.9575 36.575 77.8937 36.5963C77.8511 36.6814 77.5958 36.7665 77.5107 36.7665C77.5107 36.8303 77.1489 36.8516 77.1064 36.9793C77.0213 36.9793 76.8511 37.0644 76.7447 37.1069C76.5957 37.1708 76.4468 37.1708 76.2978 37.1708C76.2978 37.2133 76.1489 37.1708 76.1489 37.2346C76.0425 37.2772 75.4893 37.1921 75.4042 37.1921C75.2552 37.1921 75.1063 37.1921 74.9574 37.1708C74.8297 37.1708 74.6807 37.1069 74.5531 37.1069C74.5105 37.1069 74.2339 37.1069 74.2339 37.0644C74.085 37.0644 73.936 36.9793 73.8084 36.958C73.7233 36.9367 73.3403 36.8942 73.3403 36.8303C73.2764 36.8303 73.2339 36.7878 73.1275 36.7665C73.1275 36.7452 72.9785 36.6814 72.9573 36.6814C72.9147 36.5963 72.6807 36.5963 72.6807 36.5324C72.6594 36.5324 72.4679 36.4261 72.4679 36.4261C72.3828 36.4048 72.2764 36.3622 72.2338 36.2771C72.1487 36.2771 72.1062 36.1282 72.0211 36.1282C71.9572 36.0431 71.8083 35.9792 71.7657 35.8941C71.5955 35.8941 71.5104 35.5962 71.404 35.5111C71.3189 35.426 71.2763 35.2984 71.1912 35.2558C71.1912 35.192 71.1487 35.192 71.1274 35.1281C71.0636 35.0856 71.1061 35.043 71.0423 35.0005C71.021 34.9154 70.9572 34.8728 70.9572 34.7877C70.9359 34.7877 70.8721 34.66 70.8721 34.6175C70.8082 34.6175 70.7231 34.0643 70.7231 33.9791C70.7231 33.8302 70.6593 33.6174 70.638 33.4259C70.6167 33.2983 70.6167 33.1706 70.638 33.0429C70.6167 32.8727 70.6167 32.7025 70.638 32.511C70.6593 32.3833 70.6593 32.2344 70.6593 32.1067C70.6806 32.1067 70.7019 31.894 70.7019 31.8514C70.7231 31.8514 70.8082 31.4471 70.8082 31.3833C70.8295 31.1918 70.9359 31.0429 70.9359 30.8726C70.9146 30.8726 71.0849 30.4258 71.0849 30.4045C71.1487 30.4045 71.17 30.0428 71.2125 30.0428C71.2125 30.0003 71.2551 29.83 71.2763 29.83C71.2763 29.7449 71.2763 29.6173 71.3402 29.596C71.3615 29.5109 71.404 29.4896 71.404 29.4045C71.4253 29.4045 71.4678 29.2768 71.4678 29.2343C71.5317 29.2343 71.5742 28.8938 71.6381 28.8938C71.6593 28.7236 71.7232 28.6385 71.7657 28.4896C71.787 28.4257 71.8296 28.3619 71.8296 28.2981C71.8721 28.2981 71.9147 27.9151 71.9147 27.8512C71.8508 27.8512 71.8083 27.8512 71.787 27.9576C71.7019 27.9789 71.6381 28.0427 71.5742 28.0427C71.5742 28.064 71.4253 28.1278 71.3827 28.1278C71.2976 28.1491 69.7444 29.3619 69.7018 29.4045C69.638 29.4683 69.5954 29.4896 69.5103 29.4896C69.5103 29.5322 69.255 29.6173 69.1912 29.6173C69.1912 29.6598 68.9997 29.6385 68.9997 29.6811C68.9358 29.6811 68.872 29.7024 68.8082 29.7024C68.7869 29.7449 68.7443 29.7662 68.723 29.7875C68.6805 29.8088 68.5954 29.8726 68.5741 29.9364C68.5528 29.9364 68.3613 30.0215 68.3613 30.0215C68.2975 30.0215 67.9571 30.1066 67.9571 30.1492C67.9145 30.1492 67.7017 30.1918 67.7017 30.213C67.6379 30.2343 67.5528 30.2769 67.489 30.2769C67.489 30.3407 67.2123 30.362 67.2123 30.4258C66.9783 30.4896 66.7017 30.5747 66.4464 30.596C66.34 30.6173 66.34 30.6386 66.2761 30.7237C66.2336 30.7237 66.2549 30.7875 66.2123 30.8088C66.191 30.9365 66.1272 30.979 66.1059 31.1067C66.0846 31.3407 66.0421 31.511 66.0208 31.745C65.957 31.745 65.9357 32.0855 65.9357 32.1706C65.9144 32.1706 65.9144 32.894 65.8506 32.894C65.8506 32.9578 65.808 33.3621 65.7442 33.3621C65.7442 33.4472 65.7229 34.1281 65.7016 34.1281C65.7016 34.1919 65.6165 34.7877 65.6591 34.7877C65.6804 34.8728 65.6591 34.9792 65.6378 35.0643C65.6165 35.1494 65.6378 35.2132 65.6378 35.3196C65.6378 35.3622 65.5314 36.1069 65.5314 36.192C65.5314 36.2771 65.5101 36.3197 65.5101 36.3835C65.4889 36.3835 65.4463 36.4899 65.425 36.5112C65.3612 36.575 65.2761 36.5963 65.2335 36.6601C65.1697 36.6601 65.1059 36.7239 65.042 36.7239C65.042 36.7665 64.8718 36.7878 64.8293 36.7878C64.8293 36.8303 64.276 36.8516 64.1909 36.8516C64.0846 36.8516 64.042 36.8091 63.9356 36.7878C63.9356 36.7665 63.8292 36.7027 63.7867 36.7027C63.7654 36.6388 63.659 36.6176 63.6164 36.575C63.5526 36.5112 63.4675 36.5324 63.4037 36.4473C63.3186 36.4473 63.0207 36.1495 63.0207 36.0643C62.9568 36.0218 62.9568 35.6175 62.8717 35.5962C62.8505 35.5111 62.8505 35.4047 62.8292 35.3196C62.7653 35.3196 62.8717 34.5324 62.8505 34.4898C62.8079 34.3621 62.9143 33.894 62.9143 33.7877C62.9143 33.7025 62.8717 33.6387 62.893 33.5536C62.893 33.4685 62.9356 33.4259 62.9356 33.3408C62.9356 33.2557 62.893 32.511 62.9994 32.511C62.9994 32.4259 63.042 32.3621 63.042 32.2557C63.0632 32.2557 63.1058 31.5961 63.0845 31.511L62.7866 31.362C62.7015 31.362 62.659 31.2556 62.5738 31.2556C62.51 31.1705 62.4036 31.128 62.3398 31.0429C62.276 30.979 62.127 30.9152 62.127 30.8301C62.1057 30.8301 62.0206 30.6599 61.9994 30.6386C61.9142 30.6386 61.8291 30.5322 61.8079 30.4471C61.7227 30.4045 61.6376 30.1918 61.6376 30.1066C61.6376 30.1066 61.5313 29.8088 61.5313 29.7662C61.51 29.7662 61.7653 28.3619 61.7653 28.3193C61.8079 28.3193 61.8291 28.0215 61.893 28.0215C61.893 27.8938 62.1696 27.7236 62.276 27.681C62.3824 27.6385 62.4462 27.6385 62.5738 27.6597C62.6377 27.6597 62.8292 27.6385 62.8292 27.5959C62.9143 27.5959 63.0207 27.5533 63.1271 27.5321C63.1696 27.4682 63.2122 27.4257 63.276 27.3831C63.3398 27.3406 63.2973 27.3193 63.3611 27.298C63.4037 27.1916 63.4675 27.0852 63.5101 26.9789C63.5739 26.8512 63.5101 26.6597 63.5313 26.5107C63.5526 26.1916 63.5526 25.8724 63.5739 25.532L63.4037 25.3192C63.3611 25.3192 63.1696 25.2767 63.1696 25.2554C63.0632 25.2554 63.0207 25.2341 62.893 25.2767C62.7653 25.3192 62.6377 25.3192 62.51 25.3192C62.4462 25.3192 62.2121 25.3192 62.2121 25.3618C62.127 25.3618 62.0845 25.4256 61.9994 25.4256C61.8717 25.4256 61.744 25.5958 61.5951 25.5958C61.5951 25.6171 61.4461 25.7022 61.4036 25.7022C61.3398 25.7873 61.2759 25.8086 61.1695 25.8299C61.1695 25.8937 60.7653 25.9363 60.6802 25.9363C60.6802 26.0001 60.1482 25.8724 60.1057 25.8724C59.978 25.8724 59.8291 25.766 59.7227 25.766C59.6163 25.6809 59.5099 25.5958 59.4248 25.4682C59.2758 25.4469 59.212 25.4469 59.1269 25.5107C59.0418 25.5745 59.0418 25.7022 59.0418 25.7873C59.0418 25.8937 58.9992 25.9788 58.9567 26.0852C58.8928 26.298 59.1269 26.3831 59.1269 26.5746C59.1056 26.7874 59.1482 26.9363 59.1269 27.1704C59.1269 27.2342 59.1269 27.3193 59.1056 27.3831C59.0631 27.5108 59.1269 27.6597 59.0843 27.7874C59.0843 28.064 59.1269 28.3619 59.0843 28.6385C59.0631 28.7449 59.0843 28.8087 59.0843 28.9151V29.3619C59.0843 29.4896 59.0418 29.6173 59.0205 29.7237C58.9992 29.8726 58.9992 30.0003 58.9992 30.1492C58.9992 30.1918 59.0418 30.5109 58.9992 30.5109C58.9992 30.6599 58.9567 30.7875 58.9567 30.9152C58.9567 31.0854 58.8716 31.1918 58.8928 31.4046C58.9141 31.6386 58.8928 31.9152 58.8503 32.1918C58.829 32.4472 58.7864 32.6812 58.8077 32.9153C58.8077 33.0004 58.8503 33.3621 58.9141 33.3621C58.9141 33.5962 58.9567 33.9153 58.9567 34.1494C58.9567 34.2132 58.9992 34.277 58.9992 34.3621V34.7877C58.9992 34.8728 58.9567 35.5111 58.9141 35.5111C58.9141 35.575 58.8503 35.958 58.8077 35.958C58.8077 35.9792 58.6801 36.2984 58.6801 36.2984C58.6801 36.341 58.6588 36.4686 58.6162 36.4686C58.6162 36.5537 58.4886 36.6176 58.4886 36.7027C58.4673 36.7239 58.2545 36.8729 58.2545 36.8516C58.1694 36.8516 58.1056 36.9154 57.9992 36.9154H57.0417C56.8502 36.9154 56.7225 36.8729 56.531 36.8303C56.4459 36.7239 56.4034 36.6601 56.297 36.575C56.1906 36.4899 56.148 36.3622 56.0417 36.2984C55.9991 36.2558 55.9565 36.192 55.9565 36.1495C55.8927 36.1495 55.914 35.8728 55.8502 35.8728C55.8502 35.8303 55.7438 35.575 55.7225 35.575C55.7225 35.5111 55.6799 35.2771 55.6587 35.2771V34.7451C55.6161 34.7451 55.5948 34.3409 55.5523 34.3409C55.5523 34.2983 55.4672 33.9791 55.4246 33.9791C55.4033 33.9366 55.3395 33.7025 55.3182 33.7025C55.2969 33.5962 55.2331 33.5323 55.1906 33.4259C55.1267 33.3834 55.0416 33.277 55.0416 33.2132C54.9565 33.1706 54.9565 32.9153 54.8714 32.9153C54.8714 32.8302 54.7437 32.7876 54.7225 32.6812C54.6373 32.6174 54.6373 32.511 54.5522 32.4897C54.5522 32.4472 54.4458 32.2769 54.4033 32.2769C54.4033 32.1706 54.3182 32.1706 54.2543 32.0855C54.2331 32.0642 54.1054 31.894 54.1054 31.894C54.1054 31.8727 54.0841 31.7876 54.0416 31.7876C54.0416 31.7237 53.999 31.6386 53.9352 31.5961C53.8288 31.4897 53.8501 31.4046 53.765 31.2982C53.7224 31.2131 53.6373 31.128 53.6373 31.0429C53.5947 31.0429 53.5947 30.8939 53.5522 30.8514C53.5522 30.745 53.3607 30.7024 53.3607 30.596C53.2756 30.5535 53.1692 30.4045 53.1054 30.3194C53.0415 30.3194 53.0415 30.2769 52.999 30.2556C52.9351 30.213 52.9139 30.213 52.8288 30.213C52.8075 30.213 52.7224 30.213 52.7224 30.2556C52.6373 30.2556 52.6585 30.3194 52.5947 30.3194C52.5947 30.362 52.5309 30.362 52.5309 30.4045C52.467 30.4258 52.4883 30.4896 52.4883 30.5535C52.4883 30.596 52.467 30.8726 52.4245 30.8726C52.4245 30.9577 52.2755 31.5961 52.2543 31.5961C52.2543 31.7663 52.1266 32.0003 52.1266 32.2131C52.1053 32.2131 52.0202 32.4472 52.0202 32.4897C51.9351 32.4897 51.9989 32.9578 51.9351 32.9578C51.9351 33.0004 51.9777 33.4259 51.9564 33.4259C51.9564 33.7238 51.8925 33.8728 51.8925 34.1281V34.5749C51.8925 34.7026 51.8287 34.8515 51.7862 34.9792C51.7862 35.0217 51.7649 35.3196 51.7223 35.3196C51.7223 35.4047 51.6585 35.426 51.6585 35.5324C51.6372 35.5324 51.5521 35.7877 51.5521 35.8303C51.4032 35.9154 51.4032 36.1707 51.1478 36.1069C51.084 36.0856 50.5095 36.0218 50.4244 36.0218C50.2967 36.0218 50.1903 36.0005 50.0627 36.0005C50.0627 35.958 49.5946 35.9792 49.5307 35.8516C49.4456 35.8303 49.3818 35.8303 49.318 35.7665C49.2541 35.7665 49.2541 35.7026 49.2116 35.6601C49.0839 35.5537 49.1052 35.4047 49.0839 35.2558C49.0626 35.1069 48.9775 35.043 48.9775 34.8941C48.9775 34.809 48.9775 34.7026 48.9988 34.6175C49.0201 34.4898 48.9775 34.3621 48.9562 34.2345C48.9562 34.1281 48.9988 34.043 49.0201 33.9579C49.0414 33.8515 48.9988 33.7877 48.9988 33.6813C48.9988 33.6174 49.0626 33.1919 49.0414 33.1919C49.0414 33.1493 49.0414 32.8514 49.0839 32.8514C49.0839 32.8089 49.1052 32.6812 49.1477 32.6812C49.2116 32.4046 49.2329 32.1706 49.2541 31.8727C49.2754 31.511 49.4244 31.3407 49.4244 30.9577C49.4882 30.9577 49.4669 30.5109 49.5307 30.5109C49.5307 30.3407 49.6371 30.1705 49.6371 30.0003C49.6797 30.0003 49.7648 29.4683 49.7861 29.3832C49.7861 29.1704 49.8499 28.9364 49.8925 28.7023C49.935 28.5534 49.9563 28.4044 49.9988 28.2555C50.0414 28.1066 50.0414 27.9576 50.0201 27.8087C50.0201 27.6597 50.0201 27.5108 50.0627 27.3618C50.084 27.2129 50.084 27.1065 50.084 26.9576C50.1052 26.8086 50.084 26.681 50.084 26.532C50.084 26.4469 50.1265 26.3193 50.1265 26.2341C50.084 25.9575 50.0627 25.6809 50.0414 25.4043C50.0201 25.4043 49.935 25.149 49.935 25.1064C49.8712 25.1064 49.8499 24.4894 49.9137 24.4894C49.9137 24.4256 49.9563 24.3617 49.9563 24.2553V24.0213C49.935 23.766 50.0201 23.5745 50.0201 23.3404C50.0201 23.1915 50.084 23.0425 50.084 22.8723C50.0627 22.8723 50.2967 22.4893 50.2967 22.4467C50.3606 22.4467 50.3818 22.3404 50.467 22.3404C50.5095 22.2978 50.6797 22.1914 50.6797 22.1701C50.7648 22.1701 50.7861 22.1276 50.8925 22.1063C50.8925 22.085 51.0627 22.0425 51.1053 22.0425C51.1053 21.9148 51.6798 22.0212 51.7649 22.0212C51.9138 22.0212 51.9777 22.0425 52.1053 22.085C52.233 22.1276 52.2968 22.234 52.4458 22.2765C52.4458 22.3404 52.7436 22.3829 52.7436 22.4255C52.8075 22.4255 52.8926 22.468 52.9351 22.5106C52.999 22.5106 53.1054 22.7021 53.1054 22.7446C53.233 22.7446 53.2117 23.3404 53.2117 23.4468C53.2117 23.4893 53.2117 23.7021 53.2543 23.7021C53.2543 23.8936 53.2543 24.0851 53.2756 24.2766C53.2756 24.3404 53.3181 24.8937 53.3181 24.8937C53.2543 25.0852 53.3181 25.3192 53.3181 25.5107C53.3394 25.5107 53.4245 25.766 53.4245 25.8299C53.4884 25.8299 53.4245 26.0001 53.4245 26.0426C53.4245 26.1065 53.5522 26.1916 53.5522 26.2767C53.616 26.3193 53.6586 26.4469 53.6586 26.5107C53.6586 26.5107 53.765 26.681 53.765 26.7022C53.8501 26.7448 53.8501 26.8512 53.9352 26.915C53.9352 27.0001 54.0416 27.0852 54.0841 27.1704C54.148 27.3618 54.4671 27.4895 54.4671 27.681C54.4884 27.681 54.531 27.7874 54.531 27.8087C54.6161 27.8512 54.6799 28.0002 54.765 28.0853C54.8076 28.1278 54.8927 28.2342 54.8927 28.2768C54.9565 28.3406 55.1906 28.4896 55.1906 28.5959C55.2544 28.6172 55.3182 28.7449 55.3395 28.8087C55.4033 28.8726 55.6161 29.0428 55.6161 29.1279C55.7438 29.213 55.7863 29.4896 55.9991 29.4896C56.0842 29.4896 56.1055 29.5109 56.148 29.4258C56.1906 29.4258 56.148 29.3832 56.1906 29.3832C56.2119 29.2555 56.2757 29.1492 56.297 29.064C56.297 29.0215 56.3608 28.9364 56.3183 28.9364V28.5534C56.3608 28.5534 56.4034 27.9789 56.4034 27.8725C56.4672 27.8725 56.4034 27.6385 56.4034 27.5959C56.3608 27.4682 56.4034 27.4044 56.4034 27.298L56.4672 26.4895C56.4672 26.4044 56.4672 25.8299 56.531 25.8299C56.531 25.7448 56.5736 25.2128 56.5949 25.2128C56.5949 25.1277 56.6161 24.766 56.68 24.766C56.7013 24.6383 56.7438 24.5745 56.68 24.4468C56.6587 24.4043 56.6587 24.0213 56.7013 24.0213C56.68 23.7447 56.7225 23.5532 56.7225 23.2766C56.7864 23.2766 56.7013 22.9787 56.7651 22.9787C56.7864 22.8297 56.8289 22.7659 56.914 22.6382C57.0417 22.4893 57.2119 22.4042 57.4034 22.3404C57.446 22.3404 57.68 22.2978 57.68 22.3404C57.7651 22.3404 57.9141 22.3616 57.9566 22.4467C58.1481 22.4467 58.3609 22.5531 58.4886 22.7234C58.5311 22.7659 58.595 22.8085 58.595 22.851C58.6375 22.851 58.6375 22.8936 58.6588 22.9149C58.6588 22.9787 58.7439 23.0212 58.7865 23.0638C58.7865 23.1063 58.829 23.1702 58.8716 23.1915C58.8716 23.2127 58.9141 23.3191 58.9354 23.3191C58.9354 23.4042 58.978 23.5106 58.978 23.5957C58.978 23.7021 59.1269 23.9574 59.2758 23.9362C59.3822 23.9149 59.4035 23.8298 59.4673 23.7872C59.4673 23.766 59.5524 23.6383 59.5524 23.6383C59.5524 23.5532 59.6376 23.4681 59.6801 23.4255C59.7652 23.3404 59.8503 23.1702 59.978 23.1276C60.1908 23.0638 60.6589 23 60.7653 22.9361C60.7865 22.8723 60.8929 22.7021 60.978 22.7021C61.0206 22.6382 61.4461 22.5319 61.4461 22.5319C61.5951 22.5531 61.9781 22.4255 62.0845 22.3829C62.276 22.3191 64.5527 22.0638 64.5527 22.1701H65.7868C65.9144 22.1701 67.34 22.234 67.34 22.2552C67.4038 22.2552 67.4251 22.2978 67.489 22.2978C67.5741 22.2978 68.2762 22.4042 68.4039 22.4042C68.5954 22.4042 68.7018 22.468 68.9145 22.468C68.9997 22.468 69.7869 22.617 69.7869 22.6382C69.8508 22.6382 69.9359 22.7234 70.021 22.7446C70.021 22.7446 70.3401 22.8085 70.3827 22.8085C70.3827 22.851 70.6593 22.9574 70.7019 22.9574C70.7019 23 70.8934 23.0638 70.8934 23.1702C70.9572 23.2127 71.1061 23.3404 71.1061 23.4042C71.2551 23.4681 71.2551 23.7021 71.3827 23.7872C71.3827 23.8511 71.4466 23.8298 71.4466 23.9149C71.4891 23.9149 71.4466 23.9574 71.5104 23.9787C71.5317 24.0638 71.5955 24.1915 71.6593 24.2341C71.6593 24.2979 71.7232 24.2979 71.7232 24.383C71.7657 24.383 71.7657 24.4894 71.7657 24.5319C71.787 24.6383 71.8508 24.766 71.8508 24.8511C71.9147 24.8511 71.9785 25.1277 71.9785 25.1915C71.9785 25.383 72.0423 25.5533 72.0423 25.7235C72.0423 25.8086 72.0849 25.8937 72.0849 25.9788V26.3193C72.0211 26.3193 72.0211 26.8086 71.9998 26.915C71.9359 27.0852 71.8296 27.5321 72.1487 27.4044C72.2126 27.3831 72.2977 27.298 72.2977 27.2342C72.3615 27.1704 72.5104 27.064 72.5104 26.9789C72.5956 26.9363 72.5743 26.8086 72.6594 26.7874C72.6594 26.7022 72.7232 26.681 72.7232 26.5959C72.8083 26.532 72.8083 26.4256 72.8934 26.3831C72.8934 26.3405 72.9785 26.1916 72.9998 26.1916C72.9998 26.1278 73.1275 25.8511 73.1488 25.8511C73.1488 25.8086 73.2339 25.4894 73.2552 25.4894C73.2764 25.2979 73.3828 25.2128 73.4254 25.0213C73.4679 25.0213 73.4892 24.9149 73.4892 24.8724C73.553 24.8511 73.5318 24.7873 73.5956 24.7447C73.6594 24.6809 73.6594 24.6596 73.6594 24.5532C73.6807 24.4468 73.7233 24.383 73.7233 24.2979C73.7871 24.2553 73.7871 24.1915 73.8296 24.1277C73.8935 24.0638 73.9148 24 73.9999 23.9149C73.9999 23.8723 74.0211 23.7872 74.0637 23.7872C74.0637 23.617 74.2978 23.5106 74.4254 23.4681C74.4254 23.4255 74.8297 23.383 74.8935 23.383C74.8935 23.3617 75.3191 23.2766 75.3616 23.2766C75.4467 23.2766 75.9787 23.234 75.9787 23.2127C76.1489 23.2127 76.8511 23 76.8723 23C76.8723 22.9361 79.4469 22.3191 79.5533 22.3191C79.5533 22.2765 80.6597 22.0212 80.6597 21.9999C80.7023 21.9999 80.9789 21.9786 80.9789 21.9361C81.064 21.9361 81.1066 21.8723 81.1917 21.8723C81.1917 21.8723 81.8087 21.7233 81.8087 21.7871C81.8725 21.7871 82.0215 21.7871 82.0215 21.851C82.1066 21.851 82.1491 21.9574 82.2343 21.9574C82.3194 22.0425 82.4045 22.1489 82.5109 22.1489C82.5109 22.1701 82.5747 22.1914 82.596 22.2127C82.6385 22.2765 82.8726 22.8297 82.8939 22.9574C83.1279 22.9149 83.2556 23.2766 83.2769 23.3191ZM68.7443 26.149C68.7443 26.1703 68.5954 26.2767 68.5528 26.2767C68.5316 26.3405 68.3826 26.4044 68.3188 26.4256C68.2975 26.4682 68.2124 26.5107 68.1698 26.5107C68.1486 26.5533 68.0847 26.5746 68.0209 26.5746C68.0209 26.5959 67.8294 26.681 67.8081 26.681C67.723 26.7874 67.5741 26.8299 67.4464 26.8725C67.2975 26.915 67.1698 26.9789 66.9996 26.9789C66.9996 27.0427 66.7442 27.0427 66.6804 27.0427C66.5527 27.0427 66.4464 27.0427 66.34 26.9576C66.2974 26.8937 66.2761 26.915 66.2761 26.8725C66.2123 26.8299 66.2549 26.7874 66.191 26.7661C66.1697 26.7022 66.1485 26.4044 66.1059 26.4044C66.1059 26.3405 66.0421 25.9363 65.9995 25.9363C65.9995 25.8937 65.9782 25.6809 65.957 25.6809C65.957 25.5958 65.957 25.5107 65.9782 25.4256C65.9782 25.3405 65.9357 25.2979 65.957 25.2128C65.957 25.0639 65.957 24.9149 66.1272 24.8937C66.2761 24.8724 66.4038 24.8724 66.5527 24.8724C66.6591 24.8511 66.7017 24.8724 66.8081 24.8724C66.8081 24.9149 67.0208 24.8937 67.0208 24.9362C67.1485 24.9362 67.2336 24.9575 67.3613 24.9575C67.4464 24.9575 67.5102 25 67.5953 25C67.7017 25 67.8507 25.0213 67.9783 25.0426C67.9783 25.0426 68.1698 25.1064 68.1911 25.1064C68.3188 25.1277 68.4252 25.2128 68.5528 25.2128C68.5528 25.2979 68.9358 25.2979 68.9997 25.4256C69.0422 25.4682 69.106 25.7448 68.9997 25.7448C68.9597 25.9032 68.8703 26.0449 68.7443 26.149Z" fill="#8DC63F"/>
<path id="Vector_3" fill-rule="evenodd" clip-rule="evenodd" d="M89.0219 22.4682C89.107 22.4682 89.1496 22.6171 89.2347 22.6597C89.2347 22.7022 89.6603 23.2767 89.7454 23.3618C89.7879 23.4044 89.873 23.5108 89.873 23.5746C89.9156 23.5959 90.022 23.7661 90.022 23.8087C90.0858 23.8299 90.1071 23.915 90.1071 23.9789C90.1284 24.0853 90.256 24.1278 90.256 24.2342C90.2986 24.2555 90.3411 24.3832 90.3411 24.447C90.3837 24.447 90.405 24.5747 90.405 24.6172C90.4688 24.6172 90.4901 25.3619 90.5114 25.4258C90.5326 25.6172 90.639 25.7449 90.639 25.9151C90.7029 25.9151 90.7241 26.3407 90.7667 26.3407C90.7667 26.3832 90.8731 26.8513 90.8944 26.8513C90.8944 26.9365 90.9369 27.3194 90.9795 27.3194C90.9795 27.362 91.0007 27.5748 91.0433 27.5748C91.0433 27.6599 91.0858 27.7024 91.0858 27.7663C91.0858 27.8727 91.1071 28.1918 91.2986 28.2131C91.405 28.2344 91.5114 28.0216 91.5114 27.9578C91.5327 27.9578 91.5752 27.8514 91.5752 27.8088C91.6816 27.7663 91.6603 27.5748 91.7667 27.5322C91.8093 27.4258 91.8731 27.362 91.9157 27.2556C91.9582 27.1492 91.9795 27.1067 92.0646 27.0428C92.0646 27.0003 92.1284 26.8939 92.171 26.8726C92.1923 26.8088 92.2348 26.8088 92.2348 26.745C92.2561 26.7237 92.3412 26.6386 92.3412 26.6173C92.4476 26.6173 92.4902 26.4045 92.5966 26.4045C92.6178 26.3407 92.8519 26.1492 92.8732 26.0854C92.8944 26.0002 92.8944 25.9577 92.9795 25.9364C92.9795 25.9364 93.1072 25.83 93.1498 25.83C93.1498 25.8087 93.32 25.7024 93.3625 25.6811C93.4477 25.6598 93.554 25.6385 93.554 25.596C93.6179 25.596 93.9583 25.3619 93.9796 25.2981C94.0647 25.2981 94.1073 25.1491 94.1924 25.1491C94.2136 25.1066 94.4051 25.0215 94.4051 25.0002C94.4903 24.9789 94.5115 24.9364 94.6179 24.9364C94.6392 24.8725 94.8307 24.83 94.8307 24.7874C94.852 24.7874 94.9371 24.7661 94.9371 24.7236C95.0009 24.7023 95.1711 24.6385 95.1924 24.5747C95.3413 24.5747 95.4903 24.4044 95.6392 24.3832C95.7882 24.3619 95.8946 24.2768 96.0435 24.2555C96.0435 24.2342 96.2563 24.1704 96.2988 24.1704L96.6606 24.0853L96.8733 24.0214C96.9159 24.0002 97.0435 23.9576 97.0435 23.9363C97.3202 23.8938 97.9159 23.7236 97.9372 23.7236C97.9372 23.7023 98.1287 23.681 98.1713 23.681C98.1713 23.6597 98.3202 23.6172 98.3628 23.6172C98.3628 23.5959 98.6606 23.5746 98.7032 23.5746C98.7032 23.4895 99.5968 23.4469 99.6607 23.4469H99.8947C100.001 23.4469 100.065 23.4044 100.171 23.4044C100.278 23.4044 100.427 23.4257 100.533 23.4682C100.597 23.5108 100.661 23.5321 100.746 23.5746C100.767 23.6172 100.852 23.6172 100.852 23.6384C100.959 23.6597 101.044 23.7874 101.129 23.8938C101.193 23.9789 101.278 24.0214 101.363 24.1065C101.427 24.1917 101.469 24.2768 101.554 24.3193C101.554 24.3832 101.597 24.3406 101.597 24.4257C101.597 24.5108 101.703 24.5534 101.767 24.6172C101.874 24.7236 101.874 24.9151 102.001 24.9789C102.065 25.064 102.065 25.1917 102.065 25.2981C102.129 25.2981 102.171 25.5534 102.193 25.6172C102.257 25.6172 102.278 26.0428 102.299 26.1279C102.32 26.3194 102.299 26.4896 102.299 26.6598C102.299 26.7662 102.32 27.2769 102.235 27.2769C102.235 27.3194 102.235 27.4897 102.193 27.4897C102.193 27.5748 102.129 27.6173 102.129 27.7024C102.086 27.7024 102.022 28.128 101.937 28.1705C101.937 28.2344 101.895 28.2344 101.874 28.2557C101.831 28.3833 101.725 28.4472 101.682 28.5748C101.661 28.6599 101.639 28.6387 101.618 28.7238C101.576 28.7663 101.469 28.8302 101.469 28.894C101.427 28.9153 101.363 29.0216 101.363 29.0642C101.256 29.1068 101.214 29.2557 101.108 29.2557C101.108 29.277 100.554 29.2983 100.491 29.2983C100.491 29.3621 100.256 29.277 100.214 29.2557C100.171 29.1706 100.129 29.1919 100.086 29.1919C100.022 29.1919 99.6394 29.2131 99.6394 29.128C99.5543 29.128 99.5117 29.0216 99.4266 29.0004C99.4054 28.9578 99.299 28.9153 99.2351 28.9153L99.1075 28.8089C99.0649 28.7876 99.0224 28.7663 98.9798 28.7238C98.9585 28.7025 98.9372 28.6812 98.9372 28.6387C98.8947 28.6387 98.8734 28.6174 98.8521 28.5748C98.767 28.4472 98.7458 28.2344 98.767 28.0854L98.7883 27.6386C98.8096 27.6386 98.7883 27.4471 98.767 27.4471C98.767 27.362 98.8096 26.9365 98.8734 26.8301C98.9372 26.7237 98.916 26.6173 98.916 26.4896C98.916 26.4045 98.8521 26.213 98.7883 26.1917C98.7883 26.1279 98.6394 26.0641 98.5968 26.0641C98.4904 26.0641 98.3202 26.0428 98.2351 26.0854C98.2351 26.1066 98.0861 26.1705 98.0436 26.1705C97.9585 26.1917 97.8521 26.213 97.767 26.213C97.767 26.2343 97.6393 26.2769 97.5968 26.2769C97.5968 26.2981 97.384 26.3407 97.3414 26.3407C97.235 26.3832 97.1925 26.4683 97.0861 26.5109C97.0861 26.5747 96.8946 26.5747 96.8946 26.596C96.7882 26.6173 96.7669 26.6598 96.6818 26.6811C96.5967 26.7875 96.5116 26.8088 96.4265 26.9152C96.2776 26.9577 96.235 27.0003 96.1286 27.1067C96.1286 27.1918 96.0009 27.2556 95.9371 27.2982C95.852 27.3833 95.7669 27.4046 95.7031 27.5109C95.6392 27.5109 95.4477 27.7024 95.4477 27.7663C95.3626 27.8301 95.3414 27.8939 95.2562 27.9791C95.2562 28.0642 95.1286 28.1067 95.1286 28.1918C95.0435 28.2769 94.9584 28.3408 94.9158 28.4472C94.8732 28.4684 94.7456 28.6174 94.7456 28.6599C94.6817 28.7025 94.6179 28.8302 94.5966 28.894C94.5328 28.9578 94.5115 29.0216 94.4264 29.0642C94.4264 29.128 94.3626 29.1493 94.3626 29.2131C94.3413 29.2131 94.2136 29.3834 94.2136 29.4259C94.2136 29.4685 94.1285 29.7238 94.086 29.7238C94.086 29.8727 93.9583 29.9791 93.9583 30.1706C93.9583 30.2983 93.9796 30.4047 93.9583 30.5324C93.9583 30.5536 93.9158 30.66 93.9796 30.66C93.9796 30.7664 94.1073 30.809 94.1711 30.8728C94.2775 30.8941 94.32 30.9792 94.4264 31.0217C94.469 31.043 94.5115 31.0643 94.5328 31.1068C94.5754 31.1707 94.6179 31.1494 94.6605 31.192C94.7456 31.192 94.7881 31.3409 94.8732 31.3409C94.9158 31.426 95.0435 31.426 95.1073 31.5111C95.1711 31.5749 95.5541 31.7664 95.5541 31.8516C95.618 31.8516 95.7243 31.9367 95.7669 32.0005C95.8307 32.0005 95.7882 32.0643 95.8733 32.0643C95.8946 32.0643 96.001 32.0856 96.001 32.1069C96.0435 32.1069 96.1499 32.1707 96.1712 32.2133C96.235 32.2133 96.2988 32.3197 96.3839 32.3409C96.3839 32.426 96.7244 32.4473 96.7244 32.5112C96.8308 32.5112 96.9372 32.6175 97.0435 32.6175C97.0435 32.6814 97.384 32.7027 97.384 32.7665C97.5329 32.7665 97.6819 32.7878 97.8308 32.8303C97.9798 32.8729 98.1074 32.9367 98.2564 32.9367C98.3415 32.9367 98.767 32.958 98.767 32.9154C98.8309 32.9154 99.3628 32.9154 99.3628 32.8729C99.4692 32.8729 99.5117 32.8303 99.5968 32.8303C99.5968 32.7878 99.8522 32.7878 99.916 32.7665C99.916 32.7452 100.171 32.6175 100.214 32.6175C100.235 32.575 100.278 32.575 100.278 32.5537C100.363 32.5537 100.384 32.4899 100.448 32.426C100.512 32.426 100.703 32.3197 100.725 32.2558C100.788 32.1707 100.916 32.0431 101.001 32.0431C101.022 32.0005 101.129 31.9579 101.193 31.9579C101.193 31.8941 101.384 31.9154 101.405 31.9367C101.405 31.9792 101.448 31.9367 101.448 31.9792C101.533 31.9792 101.554 32.0643 101.597 32.1282C101.661 32.1494 101.703 32.1494 101.725 32.2133C101.767 32.2346 101.746 32.2771 101.788 32.2771C101.788 32.3409 101.895 32.3835 101.895 32.4048C102.044 32.5324 102.278 32.3409 102.278 32.2133C102.427 32.2133 102.278 31.0643 102.342 31.0643C102.342 30.9153 102.448 30.7664 102.448 30.5962C102.512 30.5962 102.512 30.1706 102.576 30.1706C102.576 30.0217 102.661 29.9153 102.703 29.7664C102.746 29.7664 102.746 29.3834 102.831 29.3834C102.831 29.3195 102.959 28.9153 103.001 28.9153C103.001 28.8727 103.15 28.4472 103.171 28.4472C103.171 28.4259 103.214 28.2982 103.235 28.2982C103.235 28.2769 103.299 28.1067 103.32 28.1067C103.342 28.0216 103.469 27.7024 103.512 27.7024C103.512 27.5961 103.618 27.4684 103.64 27.362C103.661 27.2982 103.725 27.2343 103.725 27.1705C103.746 27.1705 103.81 27.0003 103.874 26.9577C103.874 26.8939 103.895 26.9365 103.916 26.8513C103.937 26.8513 103.937 26.745 103.959 26.7024C104.001 26.5535 104.001 26.4045 103.959 26.2769C103.959 26.1705 103.937 26.0854 103.916 25.979C103.916 25.9151 103.959 25.8087 103.959 25.7024C103.98 25.7024 104.044 25.3619 104.086 25.3619C104.086 25.2981 104.214 25.0002 104.278 25.0002C104.299 24.9151 104.342 24.7236 104.406 24.6598C104.469 24.6172 104.533 24.4683 104.618 24.4683C104.682 24.3832 104.746 24.3619 104.831 24.2768C104.916 24.1704 104.959 24.1491 105.086 24.1491C105.086 24.0853 105.469 24.064 105.555 24.0427L106.001 23.8938C106.172 23.8938 106.278 23.8725 106.427 23.8512L108.023 23.6172C108.193 23.6172 109.406 23.3618 109.682 23.3406C109.938 23.3193 110.214 23.1916 110.491 23.1703C110.576 23.1703 111.193 23.1491 111.193 23.0852L111.81 23.0639C111.81 23.0214 112.236 23.0001 112.321 23.0001C112.534 23.0001 113.47 22.8086 113.534 22.8086C113.619 22.7873 113.853 22.7873 113.938 22.7448C114.023 22.7022 114.81 22.5533 114.917 22.532C114.917 22.4682 115.257 22.4256 115.257 22.3618C115.321 22.3618 115.789 22.3192 115.789 22.298C115.938 22.2767 116.044 22.2554 116.172 22.298L116.364 22.3618C116.406 22.4256 116.491 22.5533 116.576 22.5533C116.619 22.5958 116.704 22.681 116.704 22.7235C116.81 22.8086 116.895 22.915 116.981 22.9788C116.981 23.0427 117.044 23.0639 117.044 23.1491C117.087 23.1491 117.151 23.3406 117.215 23.3618C117.257 23.4682 117.342 23.5533 117.385 23.681C117.406 23.681 117.491 23.8938 117.491 23.9363C117.513 23.9363 117.555 24.1917 117.598 24.1917C117.598 24.2555 117.704 25.7024 117.598 25.7024C117.598 25.8087 117.598 25.8939 117.491 25.9577C117.406 26.0215 117.278 26.0854 117.172 26.0428C117.066 26.0215 117.066 26.0428 116.981 26.0428C116.81 26.0428 116.683 26.0215 116.534 25.979C116.342 25.9364 115.619 25.8939 115.385 25.8939C115.257 25.9364 115.129 25.9364 114.98 25.9364C114.853 25.9364 114.768 25.979 114.661 25.979C114.555 25.979 114.449 26.0002 114.342 26.0215C114.236 26.0428 114.172 26.0002 114.087 26.0002C114.066 26.0002 113.917 26.0215 113.917 26.0428C113.768 26.0428 113.576 26.0002 113.448 26.0641C113.342 26.1066 112.725 26.0854 112.64 26.1279C112.576 26.1492 112.47 26.1705 112.406 26.1705C112.278 26.1492 112.214 26.1492 112.087 26.1917C111.959 26.2343 111.874 26.1917 111.768 26.1917C111.661 26.1917 111.534 26.213 111.385 26.2343C111.385 26.2769 111.002 26.2769 110.938 26.2769C110.853 26.2769 110.214 26.362 110.214 26.3407C110.129 26.3407 109.363 26.4045 109.363 26.4045C109.129 26.4258 109.065 26.4896 108.831 26.5109C108.746 26.5109 107.448 26.6811 107.448 26.7237C107.321 26.745 107.342 26.8088 107.235 26.8726L106.895 27.1492C106.895 27.2131 106.789 27.2982 106.767 27.3833C106.725 27.3833 106.746 27.4897 106.704 27.4897C106.704 27.5961 106.427 27.9578 106.427 28.0429C106.406 28.2344 106.427 28.3408 106.576 28.4684C106.789 28.4684 106.959 28.5323 107.193 28.5323C107.193 28.5748 107.448 28.5535 107.491 28.5535L107.938 28.5748C108.15 28.5748 108.342 28.5961 108.576 28.6387C108.682 28.6599 108.746 28.6174 108.853 28.6174C108.853 28.5961 109.15 28.5748 109.193 28.5961C109.257 28.5961 109.746 28.511 109.831 28.511C109.831 28.5323 110.257 28.4046 110.299 28.4046C110.427 28.2131 110.619 28.2344 110.81 28.2769L111.002 28.3408C111.023 28.3833 111.172 28.4472 111.172 28.4684C111.214 28.4684 111.321 28.511 111.321 28.5323C111.406 28.5323 111.448 28.6599 111.512 28.7025C111.512 28.745 112.129 29.6813 112.129 29.7451C112.214 29.7876 112.214 29.9579 112.214 30.043C112.214 30.1494 112.257 30.2132 112.257 30.3196V30.7238C112.257 30.8302 112.236 31.3196 112.151 31.3196C112.151 31.3835 112.129 31.4473 112.065 31.4898C111.98 31.5537 111.789 31.7664 111.789 31.8941C111.746 31.9792 111.406 32.192 111.406 32.2346C111.257 32.2346 111.129 32.2771 110.98 32.3409C110.874 32.3835 110.789 32.4473 110.725 32.4473C110.725 32.4899 110.576 32.5324 110.555 32.575C110.427 32.7452 110.661 32.958 110.789 33.0857C110.853 33.1495 110.938 33.2133 110.959 33.2984C111.087 33.3197 111.172 33.4261 111.214 33.5538C111.214 33.8091 111.172 35.0006 111.129 35.0006C111.129 35.0645 110.916 35.7666 110.746 35.8304C110.661 35.8517 109.938 36.2134 109.789 36.2134C109.789 36.3624 106.959 36.639 106.618 36.639C106.576 36.639 106.044 36.6603 106.044 36.5964C105.874 36.5964 105.661 36.5326 105.491 36.4901C105.427 36.4688 104.597 36.2773 104.512 36.1283C104.469 36.1283 104.342 36.0432 104.299 36.0007C104.257 35.9581 104.108 35.873 104.065 35.873C104.044 35.8092 104.001 35.8092 103.937 35.8092C103.895 35.7666 103.895 35.7241 103.831 35.7241C103.767 35.639 103.661 35.5538 103.576 35.4687C103.554 35.4687 103.427 35.4049 103.427 35.3836C103.363 35.3411 103.384 35.3198 103.342 35.2985C103.342 35.1921 103.257 35.1921 103.214 35.107C103.129 35.107 103.023 34.9581 102.98 34.8942C102.937 34.873 102.852 34.7453 102.852 34.7027C102.767 34.6389 102.767 34.5751 102.703 34.5112C102.682 34.49 102.512 34.4261 102.512 34.4474C102.363 34.4474 102.299 34.7879 102.235 34.7879C102.235 34.8517 102.171 34.9155 102.15 35.0006C102.15 35.0432 102.086 35.2134 102.044 35.2134C102.044 35.2772 101.937 35.49 101.874 35.5326C101.874 35.5751 101.703 35.8517 101.682 35.8517C101.682 35.8943 101.597 36.0007 101.554 36.0432C101.469 36.1071 101.469 36.2134 101.384 36.2773C101.299 36.3837 101.193 36.4262 101.108 36.5113C101.001 36.6177 100.895 36.7879 100.746 36.8092C100.618 36.8305 100.512 36.9369 100.384 36.9369C100.299 36.9369 100.235 36.9794 100.129 36.9794C99.9586 36.9794 99.8309 37.022 99.6394 37.022C99.4266 37.022 99.15 36.9794 98.916 36.9582C98.7883 36.9582 98.6606 36.9156 98.5543 36.9156C98.4691 36.9156 98.4266 36.8518 98.3415 36.8518C98.3202 36.8518 98.1074 36.8943 98.1074 36.8305C98.001 36.8092 97.9798 36.7879 97.8946 36.7667C97.7457 36.7454 97.6606 36.6603 97.5117 36.639C97.384 36.6177 97.3414 36.5752 97.235 36.5539C97.1925 36.5539 96.9797 36.5113 96.9797 36.4475C96.9372 36.4475 96.7457 36.4262 96.7457 36.3837C96.6606 36.3837 96.618 36.3198 96.5329 36.2986C96.5329 36.256 96.1712 36.1709 96.1712 36.1496C96.1286 36.1496 95.9797 36.1071 95.9797 36.0858C95.8733 36.0858 95.8095 35.9368 95.7031 35.9368C95.7031 35.9156 95.4903 35.8092 95.4477 35.8092C95.4477 35.7879 95.3201 35.7241 95.2775 35.7241C95.235 35.6177 95.1073 35.6602 95.0647 35.5538C95.0222 35.5538 94.9158 35.49 94.8945 35.4475C94.852 35.4475 94.7881 35.4262 94.7669 35.3836C94.7243 35.3411 94.6392 35.2985 94.5754 35.2772C94.4902 35.1708 94.4264 35.1496 94.3413 35.0857C94.2775 35.0857 94.1498 34.9794 94.1073 34.9368C94.0434 34.873 93.9796 34.8304 93.8945 34.8091C93.8519 34.7453 93.7668 34.724 93.703 34.6602C93.6179 34.5538 93.5115 34.5538 93.4477 34.4474C93.2987 34.341 93.171 34.1495 93.0008 34.107C92.8732 33.9368 92.7029 33.8729 92.5753 33.724C92.5114 33.6601 92.4902 33.6601 92.4689 33.575C92.4263 33.5325 92.3838 33.5325 92.3838 33.4686C92.3412 33.4261 92.2987 33.4474 92.2774 33.4048C92.2136 33.4048 91.9582 33.0644 91.9582 32.9793C91.8093 32.8729 91.788 32.6814 91.6391 32.575C91.6391 32.5112 91.5965 32.5537 91.5965 32.4899C91.5327 32.4473 91.5327 32.3835 91.4688 32.3197C91.4263 32.2558 91.3625 32.2133 91.3199 32.1494H91.1497C91.1497 32.192 91.1497 32.2133 91.1071 32.2133C91.1071 32.2771 90.9795 32.6601 90.9582 32.6601C90.9369 32.958 90.8731 33.2559 90.8944 33.5538C90.8944 33.8091 91.0007 34.0644 91.0007 34.3197C91.0007 34.6389 91.0433 34.9368 91.0433 35.2347C90.9795 35.2347 91.022 35.7028 91.0007 35.7879C91.0007 35.873 90.9795 36.0007 90.8944 36.0432C90.8944 36.1071 90.8305 36.256 90.8092 36.3198C90.788 36.4688 90.7029 36.5539 90.6177 36.6815C90.5489 36.75 90.47 36.8074 90.3837 36.8518C90.3837 36.8943 90.2347 36.9156 90.2347 36.9369C90.1922 36.9369 89.9369 36.9582 89.9369 36.9156C89.8305 36.9156 89.9369 36.8943 89.8518 36.8943C89.8518 36.8518 89.7241 36.8943 89.7028 36.8943C89.6177 36.9156 89.5539 36.873 89.4688 36.8518C89.4049 36.8518 89.1709 36.7667 89.1709 36.7241C89.0645 36.7241 88.8517 36.6603 88.7666 36.5539C88.724 36.4901 88.6177 36.3624 88.5538 36.3411C88.5325 36.256 88.4262 36.1922 88.4262 36.1283C88.2559 36.0432 88.2772 35.7028 88.2559 35.5113C88.1708 35.1921 88.1921 34.8304 88.1921 34.5112C88.1921 34.2985 88.1921 34.0431 88.2134 33.8516C88.2559 33.6176 88.2347 33.3835 88.2347 33.1069C88.2347 32.958 88.0644 32.7452 87.8942 32.7027C87.8942 32.5963 87.2559 32.6175 87.2559 32.6601H86.4261C86.3835 32.6601 86.0644 32.7665 86.0644 32.7665C85.9154 32.7665 85.7878 32.8303 85.6601 32.8303C85.6601 32.8303 85.1707 32.958 85.1069 32.958C85.1069 33.0005 84.7239 33.0005 84.7239 33.0644C84.7026 33.0644 84.5962 33.1069 84.5962 33.1282C84.5111 33.1495 84.4473 33.192 84.3834 33.192C84.277 33.2984 84.1707 33.4048 84.0856 33.5112C84.043 33.5538 83.9579 33.7878 83.9366 33.7878C83.9153 33.8304 83.8515 33.9793 83.8302 33.9793C83.8302 34.0431 83.7664 34.0857 83.7664 34.1708C83.7026 34.2134 83.7026 34.2985 83.6387 34.341C83.6387 34.3623 83.5536 34.5325 83.5749 34.5325C83.5536 34.6389 83.5111 34.6815 83.5111 34.7666C83.4685 34.7666 83.277 35.3836 83.2132 35.3836C83.1919 35.4687 83.1706 35.4475 83.1493 35.5538C83.0855 35.5964 83.1068 35.6602 83.043 35.6815C82.9791 35.8305 82.9153 35.9368 82.8515 36.0858C82.8089 36.1071 82.8302 36.1496 82.7876 36.1496C82.7876 36.2134 82.7238 36.256 82.6812 36.2773C82.5748 36.3837 82.4897 36.4262 82.3834 36.5539C82.277 36.5964 82.128 36.7879 82.0004 36.6815C81.9152 36.6177 81.0003 36.1496 80.8939 36.1071C80.8514 36.0432 80.7237 36.0007 80.7237 35.9156C80.6173 35.873 80.5535 35.4687 80.5109 35.4687C80.4897 35.2772 80.4258 35.0857 80.4045 34.873C80.4045 34.8304 80.4045 34.7027 80.4471 34.7027C80.4471 34.6389 80.4258 34.3623 80.4897 34.3623C80.5322 34.1921 80.596 34.0431 80.6599 33.8091C80.7024 33.6601 80.8726 33.5112 80.8726 33.341C80.8939 33.341 80.9365 33.2346 80.9365 33.2133C81.0216 33.1495 81.0216 33.0857 81.1067 33.0218C81.1067 32.9793 81.1705 32.8516 81.1918 32.8303C81.1918 32.7878 81.3408 32.5963 81.3833 32.5963C81.3833 32.5112 81.511 32.2984 81.5748 32.2558C81.6174 32.1069 81.7876 31.9579 81.7876 31.7877C81.8727 31.7877 81.8727 31.4686 81.9365 31.4686C81.9365 31.4047 82.0004 31.3409 82.0004 31.2558C82.0429 31.2558 82.0642 31.0856 82.0642 31.043C82.1706 31.043 82.1706 30.5962 82.2557 30.5962C82.2557 30.5324 82.2982 30.4685 82.2982 30.3621C82.2982 30.2557 82.277 30.1706 82.2982 30.043C82.3195 29.9366 82.3408 29.8302 82.3408 29.7238C82.3833 29.6174 82.511 29.5536 82.5748 29.4685C82.6387 29.4046 82.66 29.3408 82.7663 29.3195C82.8089 29.2557 82.8727 29.277 82.894 29.2131C82.9791 29.2131 83.0642 29.0855 83.1493 29.0216C83.2557 28.9365 83.3196 28.8302 83.3621 28.7025C83.3834 28.6387 83.426 28.4259 83.4685 28.4259C83.4685 28.362 83.6174 28.1067 83.66 28.0854C83.66 27.9791 83.7664 27.9152 83.8089 27.7876C83.8515 27.6386 83.9366 27.5961 83.9792 27.4471C84.0217 27.4258 84.0643 27.2982 84.0643 27.2343C84.0856 27.2343 84.1494 27.0854 84.1919 27.0428C84.1919 26.9577 84.2983 26.9152 84.3196 26.8301C84.3196 26.7875 84.4047 26.5747 84.4473 26.5747C84.4473 26.5109 84.5111 26.4471 84.5324 26.362C84.5962 26.3407 84.5749 26.1917 84.6175 26.1917C84.6175 26.1066 84.6813 26.0428 84.7026 25.9577C84.7452 25.9364 84.7877 25.7875 84.8303 25.7875C84.8303 25.6811 84.9792 25.596 84.9792 25.4896C85.0218 25.4896 85.043 25.3406 85.0856 25.2981C85.1494 25.0853 85.4048 24.9789 85.4048 24.7449C85.4473 24.7236 85.5111 24.6385 85.5111 24.5959C85.575 24.5534 85.5963 24.5108 85.6175 24.4257C85.7239 24.3619 85.7452 24.1704 85.8516 24.1065C85.8516 24.064 85.9792 23.8725 86.0005 23.8725C86.0431 23.7236 86.341 23.5959 86.341 23.4469C86.3622 23.4469 86.4048 23.3618 86.4048 23.3406C86.4686 23.2767 86.5325 23.2129 86.6176 23.1491C86.6814 23.0852 86.7452 23.0001 86.8303 22.9363C86.8942 22.8512 87.0218 22.8299 87.0431 22.7235C87.1282 22.6597 87.2772 22.5746 87.3197 22.4895C87.3836 22.4895 87.4261 22.3831 87.49 22.3405C87.5751 22.2767 87.5963 22.2341 87.7027 22.2128C87.8091 21.9788 88.2347 22.1277 88.4049 22.149C88.4262 22.149 88.5325 22.1703 88.5325 22.1916C88.5964 22.1916 88.7028 22.1916 88.7666 22.2128C88.7666 22.2767 88.9794 22.3192 89.0219 22.4682ZM87.9368 26.0641C88.0644 26.1066 88.0857 26.3407 88.0857 26.4471C88.107 26.5322 88.1496 27.1492 88.1708 27.1492C88.1708 27.2131 88.1708 27.8088 88.1283 27.8088C88.1283 28.0003 88.0644 28.1493 88.0644 28.2982C88.0006 28.3408 88.0432 28.3833 87.9793 28.4259C87.9793 28.4684 87.8517 28.5961 87.8091 28.6387C87.6815 28.7238 87.5751 28.745 87.4048 28.7238C87.2559 28.7025 87.1282 28.8089 86.9793 28.8089C86.9155 28.8089 86.6389 28.8089 86.6389 28.745C86.4474 28.5961 86.575 28.3833 86.6176 28.2131C86.6389 28.2131 86.6814 28.0854 86.6814 28.0642C86.7452 28.0642 86.7452 27.8727 86.7878 27.8727C86.7878 27.8088 86.8729 27.6173 86.958 27.5748C86.958 27.4684 87.0431 27.3833 87.0431 27.2769C87.107 27.2769 87.107 27.0428 87.1708 27.0003C87.1708 26.9152 87.2772 26.8513 87.2985 26.7875C87.341 26.6811 87.3623 26.6598 87.3836 26.5747C87.3836 26.5747 87.5325 26.3194 87.5538 26.2556C87.6176 26.2556 87.5538 26.1492 87.6176 26.1492C87.6389 26.0428 87.8517 25.979 87.9368 26.0641ZM108.384 32.3409C108.448 32.3409 108.81 32.4048 108.895 32.4048C108.938 32.4048 109.023 32.3409 109.023 32.4048C109.15 32.4473 109.214 32.4899 109.321 32.4899C109.427 32.4899 109.491 32.5324 109.576 32.5324C109.661 32.5324 109.725 32.4899 109.81 32.5537C109.874 32.5963 109.916 32.6814 109.916 32.7452C109.916 32.809 109.916 32.8729 109.874 32.9367C109.831 32.958 108.363 33.1495 108.321 33.1495C108.321 33.2346 106.725 33.3197 106.555 33.341C106.512 33.341 106.363 33.341 106.363 33.2984C106.257 33.2984 106.023 33.3197 106.001 33.2346C105.959 33.2346 105.959 33.1708 105.916 33.1708C105.916 33.1282 105.831 33.1282 105.789 33.1282C105.746 33.1282 105.576 33.0218 105.576 33.0005C105.448 32.9793 105.108 32.7878 105.172 32.6175C105.193 32.5112 105.299 32.426 105.384 32.3622C105.512 32.2771 105.618 32.2984 105.767 32.3197C105.767 32.2558 106.044 32.3409 106.086 32.3409C106.129 32.3409 106.235 32.3409 106.235 32.3835C106.299 32.3835 107.342 32.3197 107.597 32.3197C107.555 32.3835 108.214 32.2346 108.384 32.3409Z" fill="#8DC63F"/>
</g>
<path id="Vector_4" d="M27.4661 33.2985C27.4661 33.2985 27.381 33.0857 27.381 33.0431C27.3171 33.0006 27.232 32.9368 27.2107 32.8942C27.1256 32.8729 27.1256 32.7027 27.0192 32.7027C26.9554 32.6601 26.9341 32.575 26.8703 32.5112C26.6788 32.4687 26.6575 32.2133 26.466 32.1708C26.3809 32.1495 26.3384 32.0857 26.2533 32.0644C26.232 32.0218 26.1043 31.958 26.0618 31.958C25.9979 31.8729 25.9341 31.8729 25.8703 31.7878C25.8277 31.7878 25.6575 31.6814 25.6575 31.6601C25.5511 31.6388 25.5298 31.5963 25.4234 31.5963C25.3596 31.5324 25.2319 31.3197 25.1468 31.3197C25.1256 31.2771 24.9766 31.192 24.9341 31.192C24.8702 31.1069 24.7851 31.0643 24.7213 30.9792C24.6362 30.8941 24.6149 30.7877 24.5085 30.7239C24.4447 30.6601 24.2957 30.575 24.2957 30.4686C24.2319 30.4686 24.2532 30.2771 24.2745 30.2345C24.317 30.1707 24.3596 30.1281 24.4234 30.0643C24.4872 30.0005 24.5298 29.9366 24.5298 29.8728C24.5723 29.8728 24.8702 29.5749 24.9128 29.4898C24.9766 29.4047 25.0192 29.3409 25.1043 29.277C25.1256 29.2132 25.1256 29.1706 25.1681 29.1494C25.1681 29.1068 25.2107 28.9366 25.2532 28.9366C25.2532 28.8515 25.3809 28.7876 25.4022 28.6813C25.4234 28.5536 25.5511 28.4685 25.5511 28.3408C25.5937 28.3408 25.6788 27.9791 25.6788 27.9365C25.7426 27.9365 25.6788 27.5961 25.7426 27.5961C25.7426 27.5748 25.7852 27.4046 25.8064 27.4046C25.8277 27.2982 25.8703 27.2769 25.8703 27.1706C25.8703 27.0854 25.9128 27.0003 25.9341 26.8939C25.9554 26.8939 25.9979 26.745 25.9979 26.7237C26.0405 26.7237 26.0405 26.511 26.0405 26.4684V26.0216C26.0405 25.9152 25.9979 25.8939 25.9979 25.7875C25.9979 25.7875 26.0405 25.4258 25.9341 25.4258C25.9341 25.2556 25.8703 25.1279 25.8703 24.979C25.849 24.979 25.7639 24.7024 25.7639 24.6598C25.7213 24.6598 25.7 24.447 25.7 24.4045C25.6788 24.4045 25.6362 24.2768 25.6362 24.2343C25.5511 24.2343 25.5511 23.8087 25.4447 23.8087C25.4447 23.7236 25.2958 23.6598 25.2958 23.5747C25.2532 23.5747 24.9766 23.0853 24.9553 22.9576C24.9341 22.9576 24.8702 22.8087 24.8277 22.7661C24.7638 22.7023 24.5723 22.5533 24.5723 22.4682C24.5085 22.4257 24.4447 22.2555 24.3596 22.2555C24.2532 22.1278 24.2106 22.1065 24.0617 22.064C23.8915 22.0214 23.9553 21.9363 23.8702 21.8512C23.7638 21.7661 23.7212 21.7448 23.5936 21.7235C23.5936 21.6597 23.1893 21.681 23.1893 21.6171C22.9765 21.6171 22.785 21.5107 22.5723 21.5107C22.5723 21.4895 22.402 21.4256 22.3808 21.4044C22.3169 21.4044 22.2531 21.4044 22.168 21.3831C22.1467 21.4256 22.1041 21.4469 22.0616 21.4256C22.0616 21.3618 21.7211 21.298 21.6573 21.298L21.1254 21.2341C21.019 21.2341 20.4658 21.2554 20.4658 21.3618C20.3807 21.3618 20.3807 21.4044 20.2743 21.4044C20.2743 21.4256 20.0402 21.4469 19.9977 21.4469C19.9977 21.5107 19.6572 21.5107 19.6572 21.5746C19.5508 21.5746 19.4019 21.6597 19.3168 21.7661C19.2742 21.8299 19.1678 21.9363 19.104 21.9363C19.0615 22.0214 18.9125 22.0852 18.9125 22.1703C18.6997 22.3193 18.6785 22.6384 18.5508 22.8512C18.4231 23.0427 18.3806 23.1917 18.4019 23.4044C18.4019 23.6172 18.3806 23.7874 18.4444 24.0002C18.4657 24.0853 18.487 24.1917 18.487 24.2768C18.5082 24.2768 18.5508 24.4258 18.5508 24.4683C18.5721 24.4683 18.6359 24.6173 18.6785 24.6598C18.6785 24.7024 18.7423 24.8088 18.7849 24.83C18.7849 24.8726 18.9338 25.0641 18.9764 25.0854C19.0189 25.1279 19.1253 25.213 19.1253 25.2769C19.1253 25.3194 19.1891 25.5322 19.1253 25.5322C19.1253 25.6173 19.0827 25.6386 19.0615 25.745C18.9764 25.745 18.9125 26.1067 18.9125 26.1705C18.87 26.1705 18.8487 26.5535 18.7849 26.5535C18.7849 26.8301 18.5721 27.0003 18.5295 27.2769C18.5082 27.3833 18.4657 27.4684 18.4657 27.5535C18.4444 27.5535 18.4019 27.6387 18.4019 27.6599C18.3806 27.6599 18.338 27.7663 18.3168 27.7876C18.3168 27.8727 18.2104 27.9153 18.1678 28.0004C18.1253 28.0004 18.0614 28.0217 17.9976 28.0429C17.9976 28.0855 17.8699 28.0642 17.8274 28.0642C17.8274 28.1068 17.6359 28.1068 17.6146 28.1068C17.6146 28.1068 17.4444 28.2132 17.4231 28.277C17.3805 28.3834 17.4018 28.4685 17.2954 28.5323C17.189 28.5961 17.1465 28.6174 17.1252 28.7238C17.1039 28.8302 17.0827 28.9579 17.0827 29.0855C17.0614 29.1919 17.0827 29.3196 17.0827 29.4472C17.0827 29.5749 17.0401 29.7026 17.0614 29.8302C17.0827 29.9579 17.1252 30.0856 17.1678 30.2132C17.189 30.2983 17.2316 30.3409 17.2316 30.4047C17.2954 30.4473 17.3593 30.5962 17.3805 30.6601C17.4657 30.7239 17.5082 30.7877 17.572 30.8516C17.5933 30.8516 17.6571 31.0005 17.6997 31.0005C17.6997 31.1282 17.721 31.2133 17.6997 31.3409C17.6784 31.3409 17.6571 32.0005 17.6571 32.0857C17.6359 32.341 17.5508 32.5963 17.5508 32.8091C17.5508 32.8516 17.4869 33.341 17.4657 33.341L17.4444 34.0219C17.4444 34.0432 17.3805 34.2772 17.4444 34.2772L17.4657 34.7453C17.4869 34.7453 17.572 35.1071 17.5933 35.1709C17.6146 35.1709 17.6571 35.2986 17.6571 35.3411C17.6571 35.3411 17.7635 35.4901 17.7635 35.5326C17.8486 35.5964 17.8486 35.6816 17.9338 35.7241C17.9338 35.7879 18.0401 35.8518 18.0827 35.8943C18.2529 36.0433 18.3593 36.256 18.5934 36.2986C18.7636 36.3412 19.1466 36.3199 19.1466 36.3837H19.3593C19.5296 36.405 19.6147 36.405 19.7636 36.3199C19.7636 36.256 19.87 36.1071 19.9126 36.0858C19.9126 36.0007 19.9977 36.0007 19.9977 35.9156C20.0615 35.8943 20.0402 35.7028 20.0828 35.7028C20.0828 35.639 20.1466 35.5752 20.1466 35.4901C20.1679 35.4901 20.1253 34.9368 20.1253 34.873C20.0615 34.873 20.0828 34.4049 20.0828 34.3411C20.0828 34.2134 20.0402 34.0857 20.0402 33.9581C20.0402 33.8517 19.9764 33.7666 19.9764 33.6602C19.9764 33.5325 19.9977 33.3836 19.9551 33.2559C19.9338 33.1495 19.9126 33.0431 19.9338 32.9368C19.9551 32.9368 20.0402 32.4899 20.0402 32.4474C20.1041 32.4474 20.2317 32.0857 20.2317 32.0431C20.2956 32.0005 20.3381 31.8729 20.4232 31.8729C20.5509 31.8516 20.5722 31.8516 20.6786 31.9367C20.7424 32.0005 20.8275 32.192 20.9339 32.192C20.9764 32.2559 21.1041 32.3623 21.1892 32.4261C21.253 32.5112 21.3382 32.4899 21.402 32.5538C21.4445 32.5963 21.5297 32.6389 21.5935 32.6389C21.6573 32.7878 21.8914 32.8091 21.9765 32.958C22.0403 32.958 22.1893 33.0857 22.2318 33.1495C22.2956 33.2346 22.3808 33.2772 22.4871 33.3198C22.5297 33.3836 22.6148 33.4261 22.6786 33.49C22.785 33.5538 22.8489 33.6176 22.934 33.7027C22.9978 33.7666 23.0829 33.8942 23.168 33.8942C23.2319 33.9581 23.317 34.107 23.3808 34.1283C23.4234 34.1921 23.5085 34.2347 23.551 34.2985C23.6361 34.3623 23.6574 34.4475 23.7425 34.5113C23.8063 34.5751 23.9127 34.7666 23.9978 34.7666C23.9978 34.8517 24.1468 34.9156 24.1893 35.0007C24.2957 35.0858 24.3808 35.1709 24.4659 35.2773C24.5511 35.2773 24.6362 35.4049 24.7 35.4901C24.8064 35.4901 24.8489 35.6816 24.9553 35.6816C24.9553 35.7028 25.1043 35.7667 25.1468 35.7667C25.317 35.8092 25.4022 35.8943 25.6149 35.8943C25.6788 35.8943 26.083 35.9156 26.083 35.8518C26.1894 35.8518 26.4448 35.7028 26.4873 35.5752C26.5511 35.5539 26.615 35.5113 26.6575 35.5113C26.7001 35.4262 26.8065 35.3837 26.8065 35.2986C26.8278 35.2773 26.8703 35.1922 26.8703 35.1922C26.8916 35.1071 27.0192 35.0432 27.0192 34.9794C27.0831 34.9368 27.232 34.8092 27.232 34.7453C27.2746 34.7028 27.3384 34.7028 27.3384 34.639C27.4661 34.5538 27.5086 34.3623 27.5086 34.2134C27.4661 33.8517 27.4661 33.5325 27.4661 33.2985ZM23.2957 25.8088C23.2744 25.9365 23.2319 25.979 23.2319 26.0854C23.2106 26.0854 23.1255 26.2556 23.1255 26.2982C23.0829 26.3195 22.9978 26.4471 22.9978 26.511C22.9552 26.5322 22.8914 26.6599 22.8701 26.6599C22.8276 26.7663 22.7425 26.8301 22.6574 26.9152C22.5935 26.9791 22.4871 27.1918 22.402 27.1918C22.3808 27.2344 22.3382 27.2344 22.3382 27.2557C22.2744 27.2557 22.2318 27.3408 22.1893 27.3833C22.1467 27.3833 21.9978 27.4897 21.9765 27.5323C21.9339 27.5748 21.8914 27.5961 21.8275 27.6174C21.7212 27.6174 21.636 27.6387 21.5084 27.6174C21.4233 27.5961 21.4233 27.4897 21.4233 27.4259C21.3594 27.4259 21.4658 26.8514 21.4658 26.7876C21.4871 26.6812 21.5297 26.6173 21.5297 26.5535C21.5935 26.5535 21.5297 26.2131 21.5935 26.2131C21.5935 26.1067 21.636 26.0641 21.636 25.9577C21.6786 25.9577 21.6573 25.6599 21.6573 25.6173C21.6999 25.4471 21.6573 25.2981 21.6573 25.1279C21.6573 25.0428 21.6999 24.6598 21.7424 24.6598C21.7424 24.5747 21.8701 24.4045 21.9552 24.3194C22.1467 24.3194 22.2531 24.4258 22.4233 24.4258C22.4233 24.447 22.7212 24.5747 22.785 24.596C22.8489 24.7024 22.9765 24.7449 23.0404 24.83C23.1255 24.83 23.1467 24.9364 23.2106 24.979C23.2106 25.0002 23.2744 25.1492 23.2744 25.1492C23.317 25.2769 23.3382 25.3407 23.3382 25.4896C23.3595 25.5109 23.3808 25.8088 23.2957 25.8088Z" fill="#8DC63F"/>
</g>
</g>
</svg>
