<svg width="92" height="92" viewBox="0 0 92 92" fill="none" xmlns="http://www.w3.org/2000/svg">
<g id="Rexel logo">
<g id="Group">
<path id="Vector" fill-rule="evenodd" clip-rule="evenodd" d="M6.08922 61.5758H14.2819C15.3677 61.5758 16.0683 61.5052 16.3122 61.4584C16.5485 61.3949 16.8239 61.2141 16.9494 61.0332C17.0912 60.8442 17.1857 60.7105 17.1857 60.4113C17.1857 60.0805 17.0759 59.7187 16.8788 59.5221C16.6898 59.3254 16.3671 59.1359 16.0287 59.1202C15.8793 59.1202 15.297 59.0734 14.384 59.0734H6.08922V61.5758ZM4.05884 67.9429V57.2793H15.0684C16.2096 57.2793 17.0754 57.4134 17.5632 57.5862C18.0667 57.7523 18.5154 58.1212 18.8147 58.6171C19.121 59.1281 19.2816 59.7133 19.2791 60.3091C19.2791 61.1119 19.0352 61.7176 18.5865 62.2369C18.146 62.7485 17.4453 63.0955 16.5404 63.2287L20.0971 67.9429H17.6338L14.2341 63.3471H6.08922V67.9429H4.05884ZM71.9425 67.95V57.2865H74.3895V66.0146H87.9411V67.95H71.9425ZM21.0336 67.95V57.2865H37.017V59.0811H23.5126L23.4968 61.5601L35.1121 61.5758V63.37H23.4968V66.0146H37.017V67.95H21.0336ZM54.9673 67.95V57.2865H70.9507V59.0811H57.4458L57.431 61.5601L69.0463 61.5758V63.37H57.431V66.0146H70.9507V67.95H54.9673ZM44.4063 62.6302L37.9925 67.95H41.1484L45.9962 63.9284L50.8282 67.95H53.9836L47.5703 62.6149L53.9836 57.295H50.8282L45.9962 61.3009L41.1484 57.295H37.9925L44.4063 62.6302Z" fill="black"/>
<path id="Vector_2" fill-rule="evenodd" clip-rule="evenodd" d="M43.4385 48.3158C34.7895 48.3158 27.7305 41.2644 27.7305 32.6074C27.7305 23.9584 34.7895 16.9075 43.4385 16.9075C52.0869 16.9075 59.1465 23.9584 59.1465 32.6074C59.1465 41.2644 52.0869 48.3158 43.4385 48.3158Z" fill="#CC2229"/>
<path id="Vector_3" fill-rule="evenodd" clip-rule="evenodd" d="M48.0739 26.131C50.1129 24.3176 52.7507 23.3225 55.4795 23.3375L57.3366 23.3451V21.5271L55.4795 21.4956C52.8325 21.4677 50.2431 22.2685 48.0739 23.7856V21.6054C50.3243 20.3019 52.8788 19.6152 55.4795 19.6146V17.789C52.9049 17.7905 50.3663 18.3943 48.0667 19.5521L48.0744 15.9319H46.2172V20.6222C45.5769 21.0546 44.9669 21.5305 44.3916 22.0464V15.9319H42.5345V23.9904C41.8104 24.8877 41.1647 25.8556 40.6378 26.8785L40.6535 15.9319H38.7959V49.3067H40.6535L40.6378 33.6068C40.7603 31.3375 41.4097 29.128 42.5345 27.1534V49.2747L44.3601 49.3062L44.384 34.0865C44.4331 32.011 45.0688 29.9918 46.2177 28.2626V49.3057H48.0748V34.0163C48.2715 30.0973 51.5452 26.9653 55.4804 27.005L59.1952 27.0522V25.2027L55.4876 25.1712C52.474 25.124 49.7749 26.5878 48.0748 28.854V26.131H48.0739ZM46.2168 25.344C45.5216 26.0601 44.9092 26.8521 44.3911 27.7051V24.5966C44.9427 23.9623 45.5541 23.3826 46.2168 22.8654V25.344Z" fill="white"/>
</g>
</g>
</svg>
