<svg width="63" height="66" viewBox="0 0 63 66" fill="none" xmlns="http://www.w3.org/2000/svg">
<g id="Unilever logo">
<path id="Vector" d="M45.9596 16.7856C46.1465 18.2199 48.2219 20.1527 48.7838 20.1075C49.1596 20.1075 49.3028 18.235 49.3028 16.7856C49.3028 15.9549 49.3469 15.3054 48.9286 15.1544C48.2654 16.5592 46.5214 16.8462 45.9596 16.7856ZM46.0746 16.1511C47.5728 16.1511 48.9433 14.8982 48.9433 13.7957C48.9433 13.2821 48.7122 12.8599 48.1209 12.7846C48.2219 12.9205 48.2651 13.0263 48.2651 13.267C48.2651 14.0981 47.0555 15.0195 45.7429 15.0195C45.2667 15.0195 45.1232 15.366 45.1232 15.5471C45.1235 15.97 45.5121 16.1511 46.0746 16.1511ZM45.7573 14.4453C45.5563 14.4453 45.267 14.4453 45.1095 14.1131C44.9787 13.8413 45.0225 13.4033 44.7774 13.2068C45.0225 13.2821 45.2817 13.2821 45.4834 13.2821C46.1325 13.2821 46.7525 12.8147 47.2274 12.8147C47.5447 12.8147 47.6447 13.0263 47.6447 13.2369C47.6447 13.9012 46.3635 14.4453 45.7573 14.4453ZM13.5166 26.2824C14.0059 26.2824 13.9043 23.1419 14.6975 23.1419C14.8854 23.1419 14.943 23.3385 14.943 23.5795C14.943 24.2893 14.6112 25.3312 14.6112 25.9051C14.6112 26.1917 14.6835 26.2824 14.8129 26.2824C15.1593 26.2824 15.7643 22.8249 16.3556 22.8249C16.5428 22.8249 16.6291 23.021 16.6291 23.2176C16.6291 23.9418 15.7499 26.0256 15.7499 26.6139C15.7499 26.7046 15.779 26.7799 15.8506 26.7799C16.2114 26.7799 16.9324 25.1494 17.1628 24.3345C17.2923 23.9116 17.4652 23.6853 17.6234 23.6853C17.7675 23.6853 17.8973 23.8517 17.8973 24.1986C17.8973 25.0138 17.1772 26.9316 16.5425 28.2149C16.0523 29.211 15.2888 30.646 15.2888 31.4465C15.2888 31.854 15.3613 32.2765 15.9225 32.7901C15.0002 32.7298 14.6259 32.6395 14.2795 31.8845C12.7371 35.0996 17.1191 34.7839 15.6202 37.6371C15.3469 37.1239 13.1846 36.5952 13.1846 33.6061C13.1846 31.0233 15.3469 29.5137 15.3469 28.4416C15.3469 28.2303 15.2744 28.0492 15.0874 27.8835C14.6112 27.4606 14.5972 27.1131 14.2223 27.1131C13.9487 27.1131 13.6173 27.7777 13.9628 28.3659C14.0782 28.5621 14.1795 28.6833 14.1795 28.8648C14.1795 29.2877 13.5457 30.4197 13.0986 30.4197C12.6518 30.4197 12.3057 29.2576 12.3057 27.3853C12.3057 25.724 12.6659 24.0486 13.113 24.0486C13.2424 24.0486 13.2859 24.139 13.2859 24.2599C13.2859 24.4561 13.228 24.8478 13.228 25.5127C13.2277 26.2218 13.3866 26.2824 13.5166 26.2824ZM35.5959 11.4396C35.8269 11.4396 35.8704 12.0293 35.9132 12.3765C35.942 12.5576 35.9707 12.573 36.0433 12.573C36.2162 12.573 36.4901 11.8779 36.6767 11.8779C36.9519 11.8779 37.6866 12.6788 38.911 12.6788C40.655 12.6788 42.2987 11.3948 42.2987 9.13015C42.2987 6.94049 40.8279 5.65682 38.7959 5.65682C37.8301 5.65682 37.1242 6.15502 36.7493 6.15502C36.5189 6.17008 36.1727 5.56677 35.9992 5.56677C35.9269 5.56677 35.8557 5.71709 35.8557 5.97389C35.8557 6.13995 35.8557 6.66896 35.6821 6.66896C35.3367 6.66896 33.9963 5.62635 33.9963 6.00436C33.9963 6.3519 34.8899 7.40924 34.8899 7.68042C34.8899 7.95263 34.011 8.20909 34.011 8.39022C34.011 8.72269 34.9481 8.78295 34.9481 9.20582C34.9481 9.628 33.9669 9.96047 33.9669 10.2779C33.9669 10.5347 34.9481 10.3532 34.9481 10.6706C34.9481 10.9877 34.2274 12.044 34.2274 12.3463C34.2274 12.4223 34.2414 12.4223 34.2996 12.4223C34.5725 12.422 35.3949 11.4396 35.5959 11.4396ZM17.105 33.7567C17.0903 33.4547 17.2923 33.1674 17.5946 33.1373C17.8973 33.0918 18.1715 33.3335 18.1999 33.6506C18.2293 33.968 18.0126 34.2402 17.7096 34.285C17.4077 34.3008 17.1341 34.0738 17.105 33.7567ZM15.5055 34.2248C15.5633 34.7384 16.0238 35.1297 16.5428 35.0698C16.7301 35.0544 16.9037 34.9942 17.0184 34.9181C17.1341 35.402 17.4936 35.7039 18.027 35.6433C18.5604 35.5985 18.9356 35.1297 18.8778 34.5723C18.8778 34.4217 18.8346 34.3309 18.7915 34.2248L18.8925 34.2097C19.3965 34.1494 19.7854 33.666 19.7419 33.1373C19.6847 32.5932 19.2095 32.2008 18.7193 32.246C18.5316 32.2916 18.3731 32.3515 18.2581 32.4573C18.128 32.005 17.7531 31.6424 17.2204 31.703C16.7157 31.7331 16.3261 32.246 16.384 32.8045C16.384 32.8805 16.4124 33.0014 16.4562 33.1068L16.3552 33.1216C15.8506 33.1972 15.462 33.6358 15.5055 34.2248ZM47.6166 6.53303C47.6161 6.58276 47.625 6.63211 47.6429 6.67818C47.6608 6.72425 47.6873 6.76611 47.7208 6.80129C47.7544 6.83647 47.7943 6.86428 47.8383 6.88307C47.8822 6.90186 47.9293 6.91125 47.9768 6.9107C48.1785 6.9107 48.3376 6.74498 48.3376 6.53303C48.3376 6.32143 48.1788 6.15502 47.9768 6.15502C47.7745 6.15502 47.6166 6.32143 47.6166 6.53303ZM39.5748 20.8468C39.5748 21.1943 39.8487 21.4813 40.1794 21.4813C40.3397 21.4803 40.4932 21.4131 40.6065 21.2943C40.7198 21.1755 40.7839 21.0147 40.7847 20.8468C40.7836 20.679 40.7195 20.5184 40.6062 20.3997C40.493 20.281 40.3396 20.2138 40.1794 20.2127C39.8487 20.2127 39.5748 20.5003 39.5748 20.8468ZM39.6176 22.7488C39.6175 22.842 39.635 22.9343 39.6689 23.0204C39.7029 23.1065 39.7527 23.1848 39.8155 23.2507C39.8783 23.3166 39.9529 23.369 40.0351 23.4047C40.1172 23.4404 40.2052 23.4589 40.2942 23.459C40.3831 23.4591 40.4712 23.4408 40.5534 23.4052C40.6356 23.3697 40.7103 23.3175 40.7732 23.2517C40.8362 23.1859 40.8861 23.1077 40.9202 23.0217C40.9543 22.9356 40.9719 22.8434 40.972 22.7502C40.9722 22.562 40.901 22.3815 40.7741 22.2483C40.6473 22.1152 40.4751 22.0402 40.2955 22.0401C40.1159 22.0399 39.9435 22.1145 39.8164 22.2474C39.6893 22.3803 39.6178 22.5607 39.6176 22.7488ZM37.5422 24.0325C37.5426 24.3087 37.6475 24.5735 37.834 24.7688C38.0204 24.9641 38.2731 25.074 38.5368 25.0744C38.8002 25.0736 39.0527 24.9636 39.2389 24.7683C39.4252 24.5731 39.5301 24.3085 39.5307 24.0325C39.5301 23.7565 39.4252 23.4921 39.2389 23.2969C39.0526 23.1018 38.8002 22.9919 38.5368 22.9913C38.2732 22.9915 38.0204 23.1013 37.834 23.2965C37.6476 23.4917 37.5426 23.7564 37.5422 24.0325ZM38.0753 21.9041C38.0753 22.2369 38.3344 22.5085 38.6518 22.5085C38.9692 22.5085 39.229 22.2369 39.229 21.9041C39.229 21.572 38.9692 21.3001 38.6518 21.3001C38.3344 21.3001 38.0753 21.572 38.0753 21.9041ZM36.1865 23.1118C36.1865 23.2721 36.2472 23.4258 36.3554 23.5391C36.4636 23.6524 36.6103 23.7161 36.7633 23.7161C36.9163 23.7161 37.0631 23.6524 37.1712 23.5391C37.2794 23.4258 37.3402 23.2721 37.3402 23.1118C37.3352 22.955 37.2722 22.8064 37.1645 22.6974C37.0569 22.5884 36.913 22.5274 36.7633 22.5274C36.6136 22.5274 36.4697 22.5884 36.3621 22.6974C36.2545 22.8064 36.1915 22.955 36.1865 23.1118ZM37.6719 19.5789C37.6735 19.8347 37.7711 20.0795 37.9438 20.2605C38.1164 20.4414 38.3501 20.5438 38.5943 20.5455C38.8384 20.5437 39.0721 20.4413 39.2447 20.2604C39.4173 20.0795 39.515 19.8347 39.5166 19.5789C39.5151 19.3231 39.4174 19.0783 39.2448 18.8974C39.0721 18.7166 38.8384 18.6142 38.5943 18.6126C38.3501 18.6142 38.1164 18.7166 37.9438 18.8974C37.7712 19.0783 37.6735 19.3231 37.6719 19.5789ZM38.7531 17.7214C38.7513 17.7979 38.7641 17.874 38.7907 17.9453C38.8174 18.0165 38.8574 18.0815 38.9083 18.1363C38.9593 18.1911 39.0203 18.2347 39.0876 18.2645C39.1549 18.2943 39.2272 18.3097 39.3002 18.3097C39.3733 18.3098 39.4456 18.2946 39.513 18.2649C39.5803 18.2352 39.6413 18.1918 39.6924 18.137C39.7435 18.0823 39.7836 18.0174 39.8104 17.9462C39.8372 17.875 39.8501 17.7989 39.8484 17.7224C39.845 17.5726 39.7859 17.4302 39.6837 17.3255C39.5814 17.2208 39.4442 17.1621 39.3012 17.162C39.1582 17.1619 39.0209 17.2203 38.9185 17.3248C38.8161 17.4293 38.7567 17.5716 38.7531 17.7214ZM36.1436 19.1707C36.1436 19.323 36.2014 19.4691 36.3042 19.5768C36.407 19.6844 36.5464 19.7449 36.6918 19.7449C36.8371 19.7449 36.9765 19.6844 37.0793 19.5768C37.1821 19.4691 37.2399 19.323 37.2399 19.1707C37.2399 18.8533 36.9947 18.5976 36.6914 18.5976C36.3888 18.5976 36.1436 18.8533 36.1436 19.1707ZM36.0714 21.1337C36.0714 21.6473 36.4607 22.0555 36.9516 22.0555C37.0672 22.0561 37.1819 22.0327 37.2888 21.9866C37.3958 21.9405 37.4929 21.8726 37.5746 21.7868C37.6563 21.7011 37.721 21.5992 37.7649 21.4871C37.8087 21.375 37.8309 21.2549 37.8301 21.1337C37.8309 21.0126 37.8086 20.8926 37.7648 20.7805C37.7209 20.6684 37.6562 20.5666 37.5745 20.481C37.4928 20.3953 37.3956 20.3275 37.2887 20.2814C37.1818 20.2353 37.0672 20.212 36.9516 20.2127C36.8359 20.2118 36.7211 20.2351 36.6141 20.2811C36.507 20.3271 36.4097 20.3949 36.3278 20.4806C36.2459 20.5662 36.1811 20.6681 36.1371 20.7802C36.0931 20.8923 36.0708 21.0125 36.0714 21.1337ZM34.2562 22.1007C34.2562 22.5691 34.6307 22.9611 35.0778 22.9611C35.524 22.9611 35.8988 22.5691 35.8988 22.1007C35.8988 21.6326 35.5243 21.2399 35.0778 21.2399C34.6307 21.2399 34.2562 21.6326 34.2562 22.1007ZM34.7458 19.9716C34.7458 20.3037 35.0056 20.576 35.323 20.576C35.4756 20.5752 35.6219 20.5113 35.7298 20.3981C35.8376 20.2849 35.8984 20.1316 35.8988 19.9716C35.8988 19.6391 35.6397 19.3673 35.323 19.3673C35.17 19.3676 35.0235 19.4314 34.9153 19.5447C34.8071 19.6579 34.7462 19.8114 34.7458 19.9716ZM32.8292 42.2284C32.8292 42.5592 33.0884 42.8307 33.4057 42.8307C33.7218 42.8307 33.9816 42.5592 33.9816 42.2284C33.9814 42.0683 33.9206 41.9149 33.8127 41.8015C33.7049 41.6881 33.5585 41.6241 33.4057 41.6234C33.0884 41.6234 32.8292 41.8949 32.8292 42.2284ZM17.3217 17.2077C17.3217 17.5402 17.5805 17.8121 17.8973 17.8121C18.0502 17.8117 18.1967 17.7479 18.3049 17.6347C18.4131 17.5215 18.474 17.3679 18.4745 17.2077C18.4738 17.0477 18.4127 16.8945 18.3046 16.7815C18.1964 16.6684 18.05 16.6048 17.8973 16.6044C17.5805 16.6044 17.3217 16.8763 17.3217 17.2077ZM16.5716 15.8491C16.572 16.0093 16.633 16.1628 16.7412 16.2761C16.8493 16.3893 16.9959 16.4531 17.1488 16.4534C17.4652 16.4534 17.724 16.1816 17.724 15.8491C17.724 15.517 17.4652 15.2448 17.1488 15.2448C16.9959 15.2451 16.8493 15.3089 16.7412 15.4221C16.633 15.5354 16.572 15.6889 16.5716 15.8491ZM17.1916 30.7063C17.7966 30.7063 18.3016 30.2378 18.3016 29.1966V27.6568C18.3016 27.0675 18.344 26.4026 18.7193 25.9352C18.6761 26.1318 18.6761 26.343 18.6761 26.5385C18.6761 27.8376 19.3677 28.7285 19.3677 29.9824C19.3677 30.4498 19.2383 30.7066 18.8925 30.7066C18.5604 30.7066 18.5895 30.3895 18.5176 30.3895C18.4601 30.3895 18.3735 30.5857 18.3735 30.7966C18.3735 31.1144 18.5898 31.6126 19.1955 31.6126C19.7138 31.6126 20.1318 31.1144 20.1318 30.5553C20.1318 29.1969 19.1239 27.6873 19.1239 26.2376C19.1239 25.6031 19.2811 25.1806 19.4112 24.8478C19.4112 27.8534 21.8471 30.043 21.8471 31.2959C21.8471 31.5828 21.6454 31.8095 21.3425 31.8095C21.0117 31.8095 20.8528 31.5376 20.8528 31.326C20.8528 31.2199 20.8385 31.1901 20.7953 31.1901C20.7087 31.1901 20.4489 31.4921 20.4489 31.8848C20.4489 32.3823 20.8381 32.9866 21.5588 32.9866C22.3805 32.9866 22.8279 32.2618 22.8279 31.6126C22.8279 30.0276 19.8727 27.626 19.8727 25.0594C19.8727 24.6211 19.9446 23.912 20.2475 23.3686C18.3444 24.6512 17.7538 26.3584 17.7538 27.853C17.7538 29.1511 17.7103 29.8006 17.0766 29.8006C16.7451 29.8006 16.6589 29.4835 16.5435 29.4835C16.4569 29.4835 16.4134 29.7557 16.4134 29.8311C16.4124 30.3892 16.802 30.7063 17.1916 30.7063ZM42.1689 15.6228C42.8026 15.6228 43.2788 15.3204 43.2788 15.1393C43.2788 15.0787 43.1919 15.0345 43.0043 15.0345C42.8173 15.0345 42.4418 15.0195 41.7358 14.8982C41.1299 14.7928 40.6684 14.5514 40.4955 14.5514C40.4373 14.5514 40.4092 14.5812 40.4092 14.6264C40.4099 15.0191 41.1018 15.6228 42.1689 15.6228ZM39.027 13.705C39.214 13.5841 40.0203 13.7803 41.0737 13.2366C41.1878 13.1692 41.3163 13.133 41.4472 13.1315C41.9529 13.1315 41.8225 13.7351 42.2846 13.7351C42.6448 13.7351 43.1063 13.418 43.3802 13.418C43.8109 13.418 44.4316 14.8376 44.4316 15.5019C44.4316 16.2716 43.3226 16.74 42.0104 16.74C40.0928 16.74 38.9404 14.9883 38.9404 13.8556C38.9404 13.7652 38.9835 13.7351 39.027 13.705ZM17.4933 36.3987C17.0181 36.5199 16.2542 37.305 16.2542 38.5442C16.2542 40.0223 17.7675 42.3034 20.2613 42.3034C22.3658 42.3034 22.8838 40.7777 22.8838 39.7505C22.8838 37.4714 21.5435 35.87 19.7998 35.87C18.8484 35.87 17.9979 36.5952 17.9979 37.6673C17.9979 38.6644 18.7186 40.1586 20.4338 40.1586C21.2405 40.1586 21.7164 39.5539 21.7164 38.8592C21.7164 38.1812 21.1248 37.2444 20.2606 37.2444C20.0008 37.2444 19.8135 37.4255 19.8135 37.7128C19.8135 38.0751 20.2897 38.4377 20.8806 38.4377C21.0248 38.4377 21.1392 38.4076 21.1973 38.3771C21.2261 38.4226 21.2405 38.4983 21.2405 38.5586C21.2405 38.9047 20.9241 39.116 20.4338 39.116C19.6985 39.116 18.9925 38.5435 18.9925 37.6368C18.9925 37.0931 19.4386 36.7 20.088 36.7C21.3699 36.7 22.1344 37.894 22.1344 39.0855C22.1344 40.1586 21.5719 40.7773 20.4195 40.7773C18.1136 40.7777 16.9896 38.6038 17.4933 36.3987ZM16.0526 19.9867C15.7208 20.0774 15.0296 20.5003 15.0296 21.2546C15.0296 21.7987 15.4329 22.1462 15.9372 22.1462C16.1967 22.1462 16.3843 22.0853 16.4994 21.9949C16.0957 21.5874 15.9516 21.1341 15.9516 20.6818C15.9516 20.3644 15.9947 20.1678 16.0526 19.9867ZM12.5214 20.1979C12.507 20.2733 12.507 20.3489 12.507 20.4243C12.507 21.1337 12.8675 21.5265 13.3437 21.5265C13.7036 21.5265 14.1216 21.2998 14.4962 20.8013C14.3248 20.8319 14.1513 20.847 13.9775 20.8465C13.4438 20.8468 12.8675 20.6965 12.5214 20.1979ZM12.0174 21.5419C12.0174 22.6893 12.3479 23.2326 12.9398 23.2326C13.4009 23.2326 14.0206 22.8855 14.756 22.2215C14.1935 22.3575 13.7618 22.4479 13.3725 22.4479C12.8532 22.4479 12.4492 22.2366 12.0174 21.5419ZM33.9528 45.2474C34.6448 45.2474 34.6013 45.1868 34.8183 45.1868C35.0347 45.1868 35.0481 45.3227 35.0481 45.4131C35.0481 45.7459 34.3415 46.153 33.0884 46.153C32.3523 46.153 31.9062 45.7459 31.7771 45.2926C31.0554 45.7757 29.9608 46.2136 28.8806 46.2136C25.9257 46.2136 25.1756 44.8694 24.2536 44.4311C23.5473 44.099 22.4664 44.7481 20.9535 42.9814C21.1545 43.0266 21.4284 43.0416 21.6451 43.0416C22.9711 43.0416 23.6774 42.3633 23.6774 41.2762C23.6774 41.1403 23.663 40.9886 23.6486 40.8533C24.0526 41.0191 24.9746 41.7446 25.1903 43.0269C25.2194 43.1779 25.8103 43.3138 26.1855 43.3138C26.7039 43.3138 27.3671 43.0872 27.4681 42.1973C29.1977 42.0469 30.3642 40.9739 30.6093 39.6145C31.2293 39.8261 31.9346 40.4151 32.1082 40.7174C32.3526 40.6263 32.6412 40.5815 32.973 40.5815C33.4345 40.5815 33.9528 40.6722 34.5729 40.8687C34.6016 40.6722 34.631 40.4305 34.9196 40.4305C35.3517 40.4305 35.2363 40.929 35.3805 41.2159C35.4527 41.3669 35.8126 41.4573 35.8126 41.76C35.8126 42.0473 35.5815 42.1524 35.4383 42.1524C35.3801 42.1524 35.3082 42.1377 35.2648 42.1226C34.9768 42.2288 34.9621 44.4016 33.7512 44.4016C32.8576 44.4016 32.0359 43.6316 31.6767 42.665C31.5754 42.3787 31.3591 42.1976 31.1571 42.1976C30.926 42.1976 30.7969 42.2438 30.523 42.5595C29.7455 43.4504 28.4486 44.2205 26.8487 44.2205C26.3588 44.2205 25.9698 44.1757 25.8682 44.1757C25.8107 44.1757 25.8107 44.1907 25.8107 44.2058C25.8107 44.3116 26.3009 44.719 27.3674 44.719C29.9037 44.719 30.523 43.2238 30.9263 43.2238C30.9848 43.2238 31.1574 43.2238 31.2584 43.4655C31.8493 44.9156 33.1322 45.2481 33.9391 45.2481H33.9528V45.2474ZM25.7669 14.8982C26.7173 14.8982 27.1504 15.7587 27.1504 16.7253C27.1504 17.1478 27.0353 17.7669 26.848 17.7669C26.6604 17.7669 26.6892 17.4194 26.6604 17.1019C26.6317 16.6952 26.5594 16.6044 26.4307 16.6044C26.1855 16.6044 26.027 17.2077 26.027 17.7669C26.027 18.1144 26.0839 18.5068 26.3437 18.5068C26.4872 18.5068 26.6173 18.4312 26.7039 18.3411C26.6461 19.0351 26.1565 19.6391 25.4645 19.6391C24.1958 19.6391 23.7202 18.084 23.5761 17.178C22.8132 18.0237 22.1063 18.6428 20.8378 18.6428C19.656 18.6428 19.1232 17.7368 19.1232 16.8763C19.1232 16.6192 19.2095 15.9549 19.5112 15.9549C19.872 15.9549 19.5543 17.193 20.2613 17.193C20.4342 17.193 20.7512 17.042 20.9244 16.5442C21.0254 16.2422 21.0823 15.9248 21.0823 15.6526C21.0823 15.2448 20.9963 14.9886 20.7077 14.9886C20.4623 14.9886 20.1596 15.1848 20.059 15.29C20.4051 14.2032 21.2405 13.6444 22.1631 13.6444C23.3018 13.6444 23.9075 14.7017 23.9075 15.8792C23.9073 16.0513 23.8928 16.2231 23.864 16.3925C24.3552 15.5468 25.0321 14.8982 25.7669 14.8982ZM22.1494 5.89856C22.1494 5.80782 21.7173 5.71709 21.1258 5.71709C20.1894 5.71709 20.3195 6.53303 19.5988 6.53303C18.8493 6.53303 19.0366 5.6873 18.0855 5.6873C17.5083 5.6873 16.9759 5.7931 16.9759 5.92903C16.9759 6.11016 17.6528 6.03484 17.6528 6.53337C17.6528 7.06204 16.1974 7.21338 16.1974 7.52942C16.1974 7.63522 16.3127 7.68042 16.4569 7.68042C16.7739 7.68042 17.2789 7.52942 17.6381 7.52942C17.8404 7.52942 18.0277 7.5753 18.0277 7.7715C18.0277 8.14917 17.2501 8.82849 17.2501 9.13083C17.2501 9.22191 17.3223 9.25204 17.3943 9.25204C17.6819 9.25204 18.1725 8.4813 18.6336 8.4813C19.3974 8.4813 18.8935 10.1878 19.3105 10.1878C19.7429 10.1878 19.5556 8.51177 20.1756 8.51177C20.6803 8.51177 21.0555 9.67422 21.401 9.67422C21.4869 9.67422 21.5591 9.5989 21.5591 9.49275C21.5591 9.17637 21.1264 8.52684 21.1264 8.10363C21.1264 7.84683 21.2996 7.72596 21.5304 7.72596C21.8621 7.72596 22.3092 7.93756 22.554 7.93756C22.6407 7.93756 22.7269 7.90743 22.7269 7.80163C22.7269 7.43903 21.4438 7.04698 21.4438 6.57857C21.4431 6.10982 22.1494 6.10982 22.1494 5.89856ZM42.6879 35.6286C42.3846 35.6286 40.7122 37.9696 39.632 37.9696C39.3728 37.9696 39.1564 37.456 39.1564 37.0636C39.1564 36.852 39.2859 36.7003 39.7483 36.5956C42.2264 36.0063 41.678 34.059 43.7962 34.059C44.9643 34.059 46.2622 34.8904 46.2622 36.762C46.2622 38.7541 43.5531 41.2317 43.1491 41.2317C42.8177 41.2317 42.4572 40.7328 42.4572 40.4007C42.4572 40.2949 42.5006 40.1593 42.7892 40.0381C44.1718 39.4635 44.9647 38.136 44.9647 37.4564C44.9647 37.3057 44.8931 37.1544 44.7055 37.1544C44.4597 37.1544 43.4089 39.6601 42.2415 39.6601C41.4332 39.6601 40.6118 38.89 40.6118 38.5288C40.6118 37.9244 42.9471 36.8065 42.9471 35.9604C42.9464 35.6433 42.803 35.6286 42.6879 35.6286ZM44.2437 34.6928C44.0414 34.6928 43.825 34.8596 43.825 35.2657C43.825 35.719 44.1577 36.0059 44.3447 36.0963C44.4724 36.172 44.616 36.2135 44.7627 36.2172C45.1807 36.2172 45.5121 36.0963 45.5121 35.7337C45.5121 35.2657 44.8637 34.6928 44.2437 34.6928ZM25.5361 7.43868C25.5361 7.71055 26.4447 8.29982 26.8621 8.29982C27.1072 8.29982 27.1795 7.95229 27.1795 7.58934C27.1795 7.13737 26.9915 7.12162 26.617 7.12162C26.1424 7.12162 25.5361 7.2579 25.5361 7.43868ZM27.0356 10.4285C27.0356 9.5222 24.6726 7.84614 24.6726 7.1675C24.6726 7.13737 24.6726 7.12196 24.6863 7.09183C24.8596 6.59329 26.8193 6.24576 26.8193 5.83795C26.8193 5.64142 26.4738 5.64142 26.3009 5.64142C24.9599 5.64142 23.0002 6.15502 23.0002 6.6539C23.0002 7.1675 24.7586 8.42069 24.7586 9.0401C24.7586 9.20582 24.6582 9.26677 24.4997 9.26677C24.0098 9.26677 22.9423 8.64736 22.4383 8.64736C22.2076 8.64736 22.1216 8.81308 22.1216 9.05482C22.1216 9.779 22.9423 11.1537 22.9423 11.5609C22.9423 11.6061 22.9279 11.6667 22.8711 11.6667C22.6116 11.6667 21.3862 10.157 20.9542 10.157C20.7957 10.157 20.7809 10.3837 20.7809 10.7155V11.2291C20.7809 11.5759 20.7666 11.7872 20.608 11.7872C20.2332 11.7872 20.0599 10.6853 19.6998 10.6853C19.3246 10.6853 19.2536 12.6487 18.8931 12.6487C18.4751 12.6487 18.835 10.4888 18.431 10.4888C17.9845 10.4888 17.4796 11.9235 17.1635 11.9235C17.0478 11.9235 17.019 11.8026 17.019 11.6964C17.019 11.2595 17.2645 10.5494 17.2645 10.1265C17.2645 9.91493 17.2066 9.79441 17.0334 9.79441C16.5866 9.79441 15.6071 10.5497 15.2319 10.5497C15.1744 10.5497 15.1025 10.5196 15.1025 10.4587C15.1025 10.0961 16.6736 8.94902 16.6736 8.43541C16.6736 7.93688 14.5112 8.26901 14.5112 7.69514C14.5112 7.2127 16.0532 6.71382 16.0532 6.21528C16.0532 5.77769 14.2226 5.58184 13.5173 5.58184C12.6662 5.58184 12.205 5.68696 12.205 5.94376C12.205 6.33615 14.1363 6.45736 14.1363 6.80455C14.1363 7.13737 12.1328 8.02761 12.1328 8.54122C12.1328 8.99387 14.958 8.57066 14.958 9.03975C14.958 9.55233 12.493 11.7718 12.493 12.5124C12.493 12.6788 12.6087 12.7541 12.7665 12.7541C13.517 12.7541 15.4623 11.2595 15.9951 11.2595C16.1823 11.2595 16.197 11.5003 16.197 11.7115C16.197 12.1046 16.0676 12.7082 16.0676 13.1465C16.0676 13.4934 16.1536 13.7348 16.4425 13.7348C16.9756 13.7348 17.4655 12.7839 17.8257 12.7839C18.2875 12.7839 18.013 15.5765 18.7055 15.5765C19.2955 15.5765 19.5406 12.5572 19.9158 12.5572C20.291 12.5572 20.5937 13.4324 20.9395 13.4324C21.3712 13.4324 21.1696 11.9074 21.6311 11.9074C22.1354 11.9074 23.5764 13.7194 24.2252 13.7194C24.4272 13.7194 24.4994 13.553 24.4994 13.3417C24.4994 12.5422 23.4329 10.7302 23.4329 10.156C23.4329 10.0046 23.4757 9.95944 23.6346 9.95944C24.1964 9.95944 25.8397 10.7754 26.6176 10.7754C26.8765 10.7761 27.0356 10.6251 27.0356 10.4285ZM46.7097 27.8075C46.9401 27.0521 47.2274 26.5228 47.7023 25.7082C47.2274 25.4518 45.9743 24.908 45.9743 24.0174C45.9743 22.9758 47.2146 22.1613 47.4719 22.1613C47.5876 22.1613 47.6166 22.2671 47.6166 22.4633C47.6166 23.0063 47.3709 23.8818 47.3709 24.3496C47.3709 24.7717 47.6307 25.1799 47.8605 25.1799C48.1062 25.1799 48.7835 24.2739 48.7835 23.3836C48.7835 21.7833 47.4428 21.3001 47.0267 21.3001C46.6368 21.3001 45.9302 21.9644 44.2715 21.9644C41.173 21.9644 40.4674 18.7479 40.4674 17.3437C40.4674 17.2834 40.4808 17.2684 40.4955 17.2684C40.5684 17.2684 40.8707 17.6607 41.8506 17.6607C42.3555 17.6607 42.817 17.5252 43.5524 17.5252C45.2811 17.5252 46.0459 18.779 47.1127 20.3794C47.7598 20.8016 49.3021 21.4813 49.3021 23.3987C49.3021 25.0892 47.5869 26.0256 47.1702 27.8373C47.832 27.7623 48.2216 26.5231 48.8995 26.5231C49.2456 26.5231 49.4038 26.8107 49.4038 27.2634C49.4038 27.9287 49.0436 28.9244 48.351 29.5438C48.3658 29.4832 48.3658 29.4075 48.3658 29.3175C48.3658 28.8943 48.2069 28.2903 47.7454 28.2903C47.0267 28.2903 46.7956 29.1055 46.3913 29.7852C45.974 28.2451 45.4108 26.8556 44.4022 26.0106C43.3795 25.1494 41.6201 25.6178 41.6201 24.0479C41.6201 23.6247 41.8793 23.021 41.8793 22.5386C41.8793 22.3729 41.8506 22.2215 41.7643 22.1007C43.1481 22.6434 42.6579 23.6096 43.5089 24.6057C44.0407 25.2402 45.5115 25.8441 46.3629 28.456C46.3763 28.381 46.391 28.1848 46.391 28.0492C46.391 25.8147 43.5668 23.625 43.3217 22.7197C44.9634 22.9159 45.252 23.3388 46.0308 25.6028C46.19 26.0712 46.7097 27.2333 46.7097 27.8075ZM15.7499 15.5019C15.8347 15.2184 15.8783 14.9231 15.8794 14.626C15.8794 13.9008 15.563 12.7993 14.5821 12.7993C14.02 12.7993 13.617 13.2667 13.617 13.8255C13.6173 15.0191 14.7557 15.5019 15.7499 15.5019ZM14.5246 19.307C14.0491 19.307 13.5307 18.6883 13.5307 18.1298C13.5307 17.8275 13.7474 17.4495 13.9043 17.4495C13.9625 17.4495 13.9912 17.4947 14.0059 17.6005C14.0922 18.3411 14.5537 18.7636 14.9864 18.9742C15.0296 19.0047 15.0587 19.0201 15.0587 19.0499C15.0587 19.1557 14.7841 19.307 14.5246 19.307ZM16.2258 17.8878C16.2258 18.099 16.1101 18.3712 15.8794 18.3712C15.3757 18.3712 14.9717 17.5704 14.9717 17.1174C14.9717 16.8311 15.1302 16.8006 15.3466 16.8006C15.4473 16.8006 15.4901 16.8157 15.563 16.8609C15.6921 16.9366 15.6921 17.2382 15.8503 17.4646C15.9372 17.6155 16.2258 17.782 16.2258 17.8878ZM15.7208 16.3021C15.6352 16.287 15.5195 16.287 15.4041 16.287C14.9286 16.287 14.2939 16.3778 13.7327 16.7705C12.4636 17.6313 12.6652 18.9893 12.4636 19.3371C12.4341 19.3872 12.4192 19.4451 12.4204 19.5039C12.4204 19.6395 12.5646 19.7901 12.694 19.7901C12.81 19.7901 12.8819 19.7607 12.9394 19.7607C13.2856 19.7607 13.6745 20.0175 14.2367 20.0175C14.5681 20.0175 14.9573 19.9114 15.4476 19.6546C16.4853 19.1112 16.8893 17.7672 16.8893 17.5406C16.8893 17.2536 16.6729 17.2988 16.4856 17.027C16.2837 16.7106 16.3843 16.5901 16.2549 16.4082C16.1676 16.3326 15.9807 16.3326 15.7208 16.3021ZM17.2495 18.7335C16.9324 19.1252 16.6004 19.7898 16.6004 20.4702C16.6004 21.2847 17.0759 21.9644 17.811 21.9644C18.5176 21.9644 18.849 21.3299 18.849 20.6814C18.849 19.6693 17.9692 18.9595 17.2495 18.7335ZM14.1644 15.834C14.1644 15.834 13.7474 16.1662 13.2277 16.1662C12.608 16.1662 12.1178 15.6827 12.1178 15.0037C12.1178 14.5356 12.3479 14.0525 12.8819 13.8108C12.8675 13.9015 12.8675 13.9768 12.8675 14.0676C12.8675 14.9284 13.329 15.5769 14.1644 15.834ZM39.8052 24.6207C39.8052 24.3194 40.0637 24.0623 40.3523 24.0623C40.669 24.0623 40.9148 24.3194 40.9148 24.6207C40.9148 24.9679 40.669 25.2097 40.3523 25.2097C40.0637 25.2097 39.8052 24.9679 39.8052 24.6207ZM40.1794 41.9863C40.2517 41.9863 40.3376 42.0315 40.3376 42.3034C40.3376 42.6345 40.1935 43.0721 39.6764 43.42C39.3153 43.6768 38.8253 43.8877 38.104 43.9031C38.2191 43.5405 38.3057 43.1635 38.3057 42.8006C38.3057 42.6797 38.291 42.5886 38.2769 42.4547H38.4639C39.6035 42.4547 40.0925 41.9863 40.1794 41.9863ZM40.2942 40.4907C40.4099 40.3849 40.4376 40.2192 40.4376 40.0528V39.7053C40.4376 39.2673 39.8049 39.0102 38.9401 39.0102C37.888 39.0102 37.3252 39.5087 37.3252 39.7203V40.4151C37.3252 40.7023 37.9596 40.9889 38.7384 40.9889C39.3584 40.9889 39.9209 40.8232 40.2942 40.4907ZM41.0443 40.6571C40.669 40.9588 39.7905 41.6388 38.3344 41.6388C37.5562 41.6388 37.2108 41.382 37.0954 41.382C36.9519 41.382 36.7927 41.5327 36.6339 41.7292C36.2878 42.1521 35.841 42.9362 35.841 43.7966C35.841 44.4016 36.2878 45.0056 37.1242 45.0056C39.8199 45.0056 41.8372 43.2382 41.8372 41.8049C41.8372 40.9889 41.3757 40.6571 41.0443 40.6571ZM41.5479 27.9585C41.5479 28.3355 41.6639 28.7731 42.0248 28.7731C42.3274 28.7731 42.5873 28.2899 42.5873 27.7619C42.5873 27.1576 42.4856 26.6895 42.4856 26.4475C42.4856 26.3427 42.5291 26.2971 42.5873 26.2971C42.803 26.3122 43.0046 26.9316 43.2357 26.9316C43.4955 26.9316 43.8835 26.4331 44.0414 26.4331C44.0848 26.4331 44.0995 26.4933 44.0995 26.5084C44.0995 26.7351 43.7675 27.2333 43.7675 27.4298C43.7675 27.5959 44.6045 27.626 44.6045 27.7773C44.6045 28.004 43.725 28.004 43.3079 28.1999C42.9046 28.3807 42.6588 28.607 42.6588 28.909C42.6588 29.211 42.9468 29.2716 43.3507 29.2716C44.3159 29.2716 44.9938 28.7279 45.2098 28.7279C45.2533 28.7279 45.282 28.7576 45.282 28.8032C45.282 28.9545 44.7918 29.4531 44.7918 29.6797C44.7918 29.9365 45.686 30.2375 45.6713 30.3888C45.6572 30.4337 45.5997 30.4488 45.4984 30.4488C45.3402 30.4488 45.0951 30.4039 44.9072 30.4039C44.7915 30.4039 44.6908 30.4183 44.648 30.4789C44.5463 30.6001 44.6767 31.4003 44.4744 31.4003C44.2875 31.4003 43.7966 29.6184 42.6883 29.6184C42.5294 29.6184 42.4137 29.7544 42.4137 29.981C42.4137 30.5847 42.9768 31.2791 43.5099 31.6116C43.7537 31.7783 44.1577 31.944 44.1577 32.0348C44.1577 32.2149 43.236 32.0495 43.236 32.3508C43.236 32.623 43.3511 33.0308 43.3511 33.2726C43.3511 33.3479 43.3377 33.4383 43.2501 33.4383C43.0778 33.4383 42.6588 32.608 42.4572 32.608C42.2849 32.608 41.9094 33.1061 41.7512 33.1061C41.7077 33.1061 41.6783 33.0609 41.6783 33.0154C41.6783 32.6679 42.212 31.8834 42.212 31.113C42.212 30.7504 42.1692 29.9656 41.7512 29.9656C41.4044 29.9656 41.0158 30.5385 40.8423 31.113C40.7413 31.4455 40.8142 32.7285 40.5831 32.7285C40.3674 32.7285 40.4242 31.868 40.1363 31.868C39.9212 31.868 39.4604 32.2751 39.3012 32.2751C39.2725 32.2751 39.2437 32.2601 39.2437 32.2299C39.2437 32.0492 39.6611 31.4602 39.6611 31.3397C39.6611 31.113 38.7093 31.0829 38.7093 30.9014C38.7093 30.7953 39.0839 30.7203 39.4307 30.6597C40.1654 30.5238 41.2462 29.9656 41.2462 29.1802C41.2462 28.304 40.438 27.9273 39.9069 27.5647C39.6323 27.3832 39.3297 27.2319 39.3297 27.1114C39.3297 26.9902 39.6764 26.9902 39.8199 26.9902C40.0343 26.9902 40.2513 26.9754 40.2513 26.794C40.2513 26.658 40.2213 26.3872 40.2213 26.1759C40.2213 26.0246 40.236 25.9041 40.2942 25.9041C40.5105 25.9041 40.8138 26.6433 40.958 26.6433C41.1877 26.6433 41.5057 26.04 41.7221 26.04C41.7937 26.04 41.8225 26.0852 41.8225 26.2208C41.8225 26.7799 41.5479 27.4144 41.5479 27.9585ZM34.6735 23.535C34.8324 24.8176 36.4757 24.1681 36.4757 25.7233C36.4757 25.9499 36.4175 26.2824 36.4175 26.5687C36.4175 26.9011 36.4463 27.1881 36.6914 27.1881C36.9366 27.1881 36.9947 27.0069 36.9947 26.7649C36.9947 26.5228 36.9366 26.2218 36.9366 26.0558C36.9366 25.5271 37.2974 25.4062 37.5131 25.4062C38.0609 25.4062 38.4789 25.9955 39.3012 25.9955C39.1136 26.9614 37.2111 26.7046 37.2111 27.7623C37.2111 28.2903 37.7148 28.4115 38.0468 28.4115C38.3495 28.4115 38.4501 28.3656 38.4501 28.0948C38.4501 27.9434 38.4214 27.7777 38.4214 27.6715C38.4214 27.6113 38.4642 27.5514 38.5371 27.5514C38.8544 27.5514 40.4099 28.7888 40.4099 29.1668C40.4099 29.514 38.7675 29.8612 38.2913 29.8612C38.1481 29.8612 38.1191 29.7557 38.1191 29.6955C38.1191 29.5893 38.3642 29.2723 38.3642 29.0908C38.3642 28.9552 38.1485 28.8645 37.5713 28.8645C37.2974 28.8645 37.0957 28.8946 37.0957 29.1213C37.0957 29.5287 37.7291 30.0273 37.7291 30.4046C37.7291 30.7063 37.5569 30.8874 37.0957 30.8874C36.7065 30.8874 36.1152 30.5703 36.1152 30.0427C36.1152 29.6195 36.5339 29.1966 36.5339 28.9401C36.5339 28.8645 36.4757 28.7436 36.3028 28.7436C35.7691 28.7436 35.6256 30.2231 33.7365 30.3895C34.0398 30.1029 34.2996 29.7855 34.2996 29.1363C34.2996 28.8189 34.2274 28.5618 34.2274 28.2153C34.2274 27.7623 34.4284 27.5356 34.717 27.5356C35.2507 27.5356 35.5099 28.3204 35.8557 28.3204C36.0433 28.3204 36.2443 28.1399 36.2443 27.8684C36.2443 26.72 34.1401 26.8861 34.1401 25.271C34.1405 24.8324 34.2839 24.2893 34.6735 23.535ZM37.4121 33.3486C37.4121 33.5602 37.5562 33.7266 37.7576 33.7266C37.9886 33.7266 38.1334 33.515 38.1334 33.2736C38.1334 32.9562 37.8589 32.5182 37.5991 32.5182C37.484 32.5182 37.5275 32.699 37.4981 32.8952C37.4843 33.0466 37.4121 33.228 37.4121 33.3486ZM36.6627 31.3407C38.1763 31.6424 38.9982 32.8353 38.9982 33.9529C38.9982 34.7233 38.5368 35.4314 37.7285 35.4314C36.9944 35.4314 36.4607 34.9031 36.4607 34.0584C36.4607 33.4242 36.9362 32.7596 36.9362 32.1098C36.9366 31.854 36.865 31.5972 36.6627 31.3407ZM34.7458 33.9081C34.8899 34.0584 34.9334 34.2097 34.9334 34.3607C34.9334 34.5867 34.8324 34.8288 34.8324 35.0842C34.8324 35.4468 35.0916 35.7632 35.4668 35.7632C35.8701 35.7632 36.1433 35.4311 36.1433 35.0387C36.1436 34.4665 35.5812 33.9081 34.7458 33.9081ZM39.5166 32.9411C39.6176 33.1068 39.6607 33.2736 39.6607 33.4246C39.6607 33.8471 39.3869 34.2402 39.3869 34.6778C39.3869 35.1749 39.748 35.5831 40.2938 35.5831C40.8857 35.5831 41.2891 35.0845 41.2891 34.497C41.2894 33.6968 40.5975 33.0164 39.5166 32.9411ZM35.0916 32.1406C35.7541 32.2313 35.9132 32.4727 35.9132 32.6689C35.9132 33.0017 35.6253 33.1072 35.3514 33.1072C35.1497 33.1072 34.9193 33.062 34.6735 33.062C34.3562 33.062 34.0398 33.1376 33.7799 33.4547C33.9669 33.4848 34.2414 33.6204 34.2414 33.9228C34.2414 34.799 31.9202 34.0734 31.9202 36.3234C31.9202 37.5166 33.1031 38.814 34.8899 38.814C35.8122 38.814 36.4028 38.4983 36.4028 38.1357C36.4028 37.8488 35.9132 38.045 35.9132 37.8036C35.9132 37.6971 36.0861 37.5012 36.0861 37.3352C36.0861 37.2598 36.0286 37.1239 35.9132 37.1239C35.6534 37.1239 35.1644 37.5615 34.1692 37.5615C33.391 37.5615 32.6269 37.0934 32.6269 36.4589C32.6269 36.3234 32.685 36.2473 32.771 36.2473C32.857 36.2473 32.9727 36.3083 33.0737 36.3083C33.1606 36.3083 33.1746 36.2473 33.1746 36.0813C33.1746 35.9156 33.1746 35.4468 33.4492 35.4468C33.7218 35.4468 34.2414 36.5041 36.2306 36.5041C36.8937 36.5041 38.1763 36.3686 38.6518 35.9152C38.6377 37.5772 37.3974 39.7652 34.8039 39.7652C32.1082 39.7652 30.6675 37.5012 30.6675 35.4163C30.6675 33.1068 32.4684 31.0079 34.9337 31.0079C35.5674 31.0079 36.1012 31.2349 36.1012 31.5212C36.1008 31.9146 35.1644 31.6729 35.0916 32.1406ZM24.6579 16.6798C24.6579 16.423 24.6 16.3627 24.5422 16.3627C24.3984 16.3627 24.2389 16.5438 24.0091 16.9509C24.0379 17.4943 24.1245 17.7364 24.268 17.7364C24.4268 17.7368 24.6579 17.2077 24.6579 16.6798ZM22.6825 17.2985C22.8413 17.2985 23.0427 17.1174 23.4179 16.6798C23.4466 16.4836 23.4466 16.3018 23.4466 16.0754C23.4466 15.7734 23.3309 15.4406 23.1577 15.4406C22.7263 15.4406 22.5099 16.6493 22.5099 16.966C22.5099 17.1478 22.5969 17.2985 22.6825 17.2985ZM25.0321 18.6424C25.3926 18.6424 25.7959 17.1927 25.7959 16.287C25.7959 16.0908 25.7672 15.8796 25.6809 15.8796C25.3782 15.8796 24.8726 17.3738 24.8726 18.1901C24.873 18.5068 24.9452 18.6424 25.0321 18.6424ZM21.5006 17.8121C21.9909 17.8121 22.5534 15.0342 22.5534 14.5658C22.5534 14.4449 22.5099 14.3542 22.4096 14.3542C21.9625 14.3542 21.3421 16.9965 21.3421 17.5851C21.3418 17.6909 21.3709 17.8121 21.5006 17.8121ZM23.0718 18.9595C22.4521 18.9595 22.4236 19.7453 22.4236 21.3303C21.9621 20.2887 21.198 19.1711 20.3047 19.1711C19.6991 19.1711 19.4684 19.5939 19.4684 20.3339C19.4684 20.4856 19.4827 20.7119 19.5112 20.8475C19.5837 20.5917 19.8142 20.4859 20.1031 20.4859C20.7228 20.4859 21.4719 20.9834 21.9621 21.6631C21.4 21.5573 20.8522 21.4515 20.391 21.4515C20.1031 21.4515 19.8432 21.4816 19.6272 21.5874C19.2095 21.7836 18.6467 22.4331 18.6467 23.4145C18.6467 23.5655 18.6614 23.7305 18.6908 23.912C19.1951 22.7341 20.5355 22.2065 21.4003 22.2065C21.5725 22.2065 21.7026 22.2215 21.8036 22.2369C21.3565 22.6584 21.2558 23.3991 21.2271 23.8969C21.2127 24.1386 21.1258 24.1541 20.9682 24.1541C20.9682 24.6512 21.3421 25.3915 21.3421 25.7692C21.3421 25.9051 21.2702 26.026 21.1983 26.0561C21.1983 26.72 21.8321 27.2031 21.8321 27.626C21.8321 27.7318 21.8036 27.8222 21.7602 27.8681C21.8036 28.1396 22.4955 28.6073 22.5822 28.8035C22.7263 29.1209 22.8273 29.1507 22.8989 29.1507C23.1437 29.1507 23.5329 28.8491 23.5329 28.5765C23.5329 28.4865 23.461 28.3807 23.4035 28.3351C23.1293 28.1242 22.9855 27.6709 22.8704 27.3689C22.8091 27.3695 22.7493 27.3493 22.6999 27.3112C22.6506 27.2731 22.6144 27.2192 22.5969 27.1576C22.5387 26.9611 22.5096 26.2516 22.3949 25.9048C22.2069 25.8592 22.121 25.7839 22.121 25.3757C22.121 25.1795 22.236 24.4095 22.236 24.138C22.1491 24.138 22.034 24.0774 22.034 23.8962C22.034 23.4138 22.4955 23.0358 22.6253 22.4174C23.4466 23.0512 23.6483 23.7 23.6483 24.2739C23.6483 24.5752 23.6048 24.8621 23.5473 25.1343C24.1533 24.8173 25.0606 24.3496 25.0606 23.3987C25.0606 22.8403 24.8154 22.2215 23.1865 21.9795C23.6911 21.7833 24.3258 21.6775 24.8589 21.6775C25.7812 21.6775 26.3146 21.9795 26.4303 22.6584C26.617 22.3575 26.7611 22.0099 26.7611 21.6929C26.7611 20.9526 26.1712 20.4705 25.4207 20.4705C24.5419 20.4705 23.763 20.9529 22.9266 21.5419C23.3018 20.727 23.5614 20.2438 24.0229 20.2438C24.0948 20.2438 24.1667 20.2582 24.2386 20.2736C24.0663 19.609 23.4179 18.9595 23.0718 18.9595ZM13.8762 9.55233C13.8762 9.85399 12.7806 10.8665 12.3917 10.8665C12.2475 10.8665 12.2044 10.685 12.2044 10.5193C12.2044 10.2169 12.3338 9.79406 12.4923 9.65779C12.6796 9.47666 13.1123 9.38695 13.4438 9.38695C13.6461 9.38729 13.8762 9.43146 13.8762 9.55233ZM47.3571 29.8455C48.0778 29.8455 48.6544 30.8271 48.6544 31.9752C48.6544 33.1972 48.1066 34.5271 47.128 35.4317C47.1133 33.3941 44.7343 34.0436 44.7343 32.5634C44.7343 31.9297 45.1663 31.5064 45.686 31.5064C46.1469 31.5064 46.5083 31.6427 46.7675 31.9146C46.5083 31.6581 46.3776 31.2955 46.3776 30.948C46.3769 30.3741 46.7237 29.8455 47.3571 29.8455ZM36.6627 14.3997C36.5476 14.2032 36.1149 14.0977 35.9132 14.0977C35.2795 14.0977 34.8471 14.5661 34.7605 14.9886C34.6964 14.8257 34.6619 14.6516 34.6588 14.4754C34.6588 13.8104 35.0916 12.9955 36.1436 12.9955C37.0666 12.9955 37.4268 13.5088 37.5562 13.5088C37.6997 13.5088 37.8448 13.3578 37.9596 13.3578C38.1184 13.3578 38.1184 13.6146 38.1184 13.7957C38.1184 14.4001 37.8586 15.4413 37.2108 15.8193C37.0951 15.5622 36.8647 15.2759 36.4901 15.0941C36.4468 15.0766 36.4098 15.0455 36.384 15.0051C36.3582 14.9648 36.3449 14.917 36.346 14.8685C36.346 14.7021 36.4901 14.4901 36.6627 14.3997ZM34.4866 15.5019C34.8618 15.8792 35.1925 16.0453 35.5962 16.0453C35.7544 16.0453 35.9423 15.9998 36.0436 15.9998C36.1731 15.9998 36.2593 16.0604 36.2593 16.1658C36.2593 16.3322 36.1152 16.6041 35.942 16.7551C36.1149 16.8308 36.3028 16.8606 36.5045 16.8606C37.3255 16.8606 38.2625 16.3168 38.2625 14.9585C38.4354 15.1992 38.5371 15.6978 38.5371 15.9241C38.5371 17.5697 37.383 18.2041 36.3175 18.2041C35.6256 18.2041 35.2795 17.9627 35.1929 17.9627C34.9196 17.9627 34.9337 18.5363 34.7461 18.5212C34.4147 18.4613 34.1123 17.6905 34.1123 16.8756C34.1117 16.3925 34.2274 15.8792 34.4866 15.5019ZM24.4703 11.1082C24.4703 11.6362 26.2718 14.2186 26.6173 14.2186C26.9052 14.2186 27.1216 13.6899 27.1216 13.2366C27.1216 13.1164 27.0928 12.9955 27.0353 12.9051C26.7755 12.5275 24.9449 11.0175 24.5422 11.0175C24.4991 11.0178 24.4703 11.063 24.4703 11.1082ZM45.267 9.86939C45.267 8.79802 42.8177 8.52615 42.8177 8.28407C42.8177 8.08788 44.1865 7.7554 44.8931 7.74C43.8109 6.29129 42.2702 6.44229 42.2702 6.18549C42.2702 6.03415 43.4236 5.73147 44.4891 5.73147C45.3827 5.73147 46.2197 5.94341 46.2197 6.65321C46.2197 7.04595 45.9164 7.45409 45.9164 8.0574C45.9164 8.38953 46.0746 8.67681 46.4936 8.67681C46.9404 8.67681 47.0414 8.17827 47.0414 7.6496C47.0414 7.2127 46.9692 6.87988 46.9692 6.66862C46.9692 6.03415 47.3859 5.61163 47.9771 5.61163C48.4674 5.61163 48.5824 5.83761 49.3031 5.83761C48.9145 6.07935 48.7701 6.51762 48.7701 6.72888C48.7701 7.36335 49.16 7.80094 49.16 9.10002C49.16 11.4852 47.0274 12.3309 44.4169 12.3309C43.6962 12.3309 42.9334 12.2703 42.1839 12.1494C42.0679 12.1344 42.0391 12.1046 42.0391 12.0289C42.0391 11.8324 43.0631 11.7269 43.0631 10.7603C43.0631 10.383 42.9471 10.0201 42.9471 9.88446C42.9469 9.86846 42.9498 9.85259 42.9556 9.83778C42.9614 9.82297 42.9699 9.80951 42.9807 9.79822C42.9915 9.78692 43.0044 9.77801 43.0185 9.772C43.0327 9.766 43.0479 9.76302 43.0631 9.76325C43.2795 9.76325 43.7103 10.6398 44.5172 10.6398C44.7339 10.6401 45.267 10.5645 45.267 9.86939ZM47.7023 8.34468C47.7023 9.68861 46.7672 10.7155 45.08 11.0027C45.267 11.0178 45.4409 11.0178 45.6138 11.0178C47.5876 11.0178 48.3082 10.0813 48.3082 9.29655C48.3082 8.85828 48.0778 8.46589 47.7023 8.34468ZM46.3345 20.4852C46.3345 20.1678 45.5703 20.1377 45.4981 19.2464C45.4834 19.1108 45.4406 18.8691 45.2817 18.8691C45.0225 18.8691 45.2235 19.6994 44.9356 19.6994C44.2718 19.6994 44.0561 18.3411 43.8109 18.3411C43.7534 18.3411 43.6815 18.3863 43.6815 18.5674C43.6815 18.7335 43.7103 18.8393 43.7103 19.0351C43.7103 19.231 43.6668 19.3673 43.4959 19.3673C43.1066 19.3673 42.7605 18.4161 42.4284 18.4161C42.3562 18.4161 42.2849 18.462 42.2849 18.537C42.2849 18.7188 42.5729 19.0499 42.5729 19.2159C42.5729 19.5789 41.6352 19.3817 41.6352 19.6843C41.6352 19.8206 41.7653 19.8658 41.9385 19.8658C42.2418 19.8658 42.7173 19.7295 42.9618 19.7295C43.1066 19.7295 43.323 19.7604 43.323 19.9562C43.323 20.1678 42.8033 20.44 42.8033 20.6359C42.8033 20.727 42.8902 20.7715 42.9615 20.7715C43.3507 20.7715 44.0417 20.0624 44.5319 20.0624C44.6189 20.0624 44.8359 20.1079 44.8359 20.2438C44.8359 20.44 44.345 20.7865 44.345 21.0735C44.345 21.1491 44.3885 21.2399 44.4744 21.2399C44.7343 21.2399 45.0804 20.5301 45.5706 20.5301C45.7576 20.5301 46.0321 20.6061 46.1759 20.6061C46.2916 20.6061 46.3345 20.5301 46.3345 20.4852ZM36.0139 8.96408C36.0139 8.79802 35.4521 8.48061 35.4521 8.29982C35.4521 8.26935 35.4815 8.25428 35.5236 8.25428C35.6818 8.25428 35.9557 8.31455 36.1727 8.31455C36.3597 8.31455 36.3884 7.46984 36.5336 7.46984C36.6339 7.46984 36.8075 8.26935 36.9656 8.26935C37.1526 8.26935 37.4981 8.04268 37.6428 8.04268C37.6716 8.04268 37.6997 8.05775 37.6997 8.08822C37.6997 8.19436 37.3395 8.60148 37.3395 8.72269C37.3395 8.85862 38.1478 9.02469 38.1478 9.1459C38.1478 9.29656 37.3248 9.28183 37.3248 9.41674C37.3248 9.52254 37.6281 9.94506 37.6281 10.0817C37.6281 10.1118 37.6134 10.1269 37.5847 10.1269C37.4696 10.1269 37.0235 9.91528 36.8934 9.91528C36.7352 9.91528 36.4754 10.5347 36.3456 10.5347C36.3022 10.5347 36.2734 10.4737 36.2734 10.3984L36.244 9.79441C36.244 9.7338 36.2159 9.67354 36.143 9.67354C35.9701 9.67354 35.6387 9.65813 35.5377 9.65813C35.4661 9.65813 35.4373 9.64307 35.4373 9.61259C35.4383 9.49207 36.0139 9.06954 36.0139 8.96408ZM38.8253 11.8327C37.8154 11.8327 37.1529 11.3041 37.1529 11.0329C37.1529 10.8969 37.2399 10.8062 37.3539 10.8062C37.6719 10.8062 38.3639 11.3188 38.5943 11.3188C38.6518 11.3188 38.6953 11.289 38.6953 11.1986C38.6953 10.9271 38.4501 10.4737 38.4501 10.2474C38.4501 10.1871 38.4936 10.1416 38.5802 10.1416C38.9688 10.1416 39.546 10.308 39.8487 10.308C39.9503 10.308 39.9781 10.2471 39.9781 10.1868C39.9781 9.85398 39.0417 9.20548 39.0417 9.00928C39.0417 8.82815 40.2079 8.55628 40.2079 8.26901C40.2079 7.96701 38.6227 8.17827 38.6227 7.891C38.6227 7.67973 38.9254 7.31782 38.9254 7.15209C38.9254 7.07608 38.8678 7.04629 38.7672 7.04629C38.6377 7.04629 37.9448 7.33322 37.6572 7.33322C37.5131 7.33322 37.3399 7.30309 37.3399 7.09149C37.3399 6.74429 37.9024 6.36628 38.7819 6.36628C40.2079 6.36628 41.059 7.39349 41.059 9.11508C41.059 11.289 39.6036 11.8327 38.8253 11.8327ZM29.0679 37.9552C29.0679 38.0905 29.0241 38.2418 28.9088 38.3925C28.7509 38.0901 28.3031 37.9391 28.1028 37.9391C26.6173 37.9391 27.1798 40.1887 25.594 40.1887C24.9308 40.1887 24.8726 40.098 24.6288 40.098C24.5275 40.098 24.47 40.1435 24.47 40.2336C24.47 40.626 25.003 41.5936 26.4872 41.5936C27.973 41.5936 29.3987 40.6417 29.3987 39.4628C29.3957 39.2494 29.3515 39.0388 29.2686 38.8438C29.3268 38.753 29.4706 38.6928 29.6 38.6928C29.8311 38.6928 29.9608 38.965 30.1769 38.965C30.4076 38.965 30.5802 38.7839 30.5802 38.5438C30.5802 38.3473 30.4792 38.2114 30.306 38.1199C30.4217 38.0299 30.508 37.8789 30.508 37.7132C30.508 37.456 30.3347 37.2146 30.0475 37.2146C29.9174 37.2146 29.8311 37.2602 29.7304 37.3653C29.7013 37.0934 29.5575 36.8366 29.2833 36.8366C29.0679 36.8366 28.9088 37.003 28.9088 37.2598C28.9088 37.5012 29.0679 37.6974 29.0679 37.9552ZM25.1903 38.5284C24.7582 38.5284 24.1101 38.0449 24.1101 37.7731C24.1101 37.5464 24.3121 37.4255 24.4703 37.4255C24.8308 37.4255 25.4789 37.894 25.4789 38.2867C25.4789 38.3925 25.4067 38.5284 25.1903 38.5284ZM21.1692 35.1448C22.323 35.4471 22.8989 36.0963 23.0142 36.8667C23.1296 37.607 23.2734 38.2117 23.5476 38.5134C23.9081 38.9345 24.6148 39.3122 25.2338 39.3122C25.7528 39.3122 26.1715 39.1317 26.1715 38.6346C26.1715 38.0905 25.4649 36.8671 24.4268 36.8671C24.3262 36.8671 24.1961 36.8825 24.0523 36.8825C23.9225 36.8825 23.7346 36.852 23.6192 36.7466C23.3881 36.5356 23.3166 35.4023 22.8838 34.724C22.4089 33.9687 21.8899 33.7574 21.1836 33.7574C20.679 33.7574 20.1171 34.0443 20.1171 34.4672C20.1175 34.7233 20.2472 34.9034 21.1692 35.1448ZM28.4044 33.3037C28.4044 32.6244 27.0644 32.609 27.0644 31.5825C27.0644 31.3257 27.2223 30.8874 27.5406 30.419C27.6697 31.2044 27.9733 31.6122 28.6208 31.869C29.9033 32.3669 30.0765 33.1216 30.0765 33.9228C30.0765 35.2807 29.1686 36.9729 26.834 36.9729C24.9599 36.9729 23.6195 35.2205 23.6195 33.7413C23.6195 33.3335 23.7205 32.8802 23.966 32.8802C24.1817 32.8802 24.2539 33.0613 24.4272 33.2428C25.0753 33.9224 25.7819 34.1036 26.8049 34.1036C27.7276 34.1039 28.4044 33.7115 28.4044 33.3037ZM28.462 34.3912C27.9583 34.6021 27.771 34.5867 27.771 35.1143C27.771 35.3109 27.7279 35.5677 27.7279 35.7036C27.7279 35.8851 27.7567 35.9909 27.9586 35.9909C28.4767 35.9909 29.298 35.0698 29.298 34.285C29.298 34.0738 29.1833 33.9834 29.0539 33.9834C28.9378 33.9834 28.8081 34.2248 28.462 34.3912ZM23.8647 26.7649C23.8647 25.799 26.0558 25.2853 26.0558 24.0928C26.0558 23.8966 25.9836 23.5501 25.8538 23.2929C26.6173 23.7302 27.1798 24.4708 27.1798 25.0741C27.1798 26.1164 26.1424 26.5988 26.1424 27.2483C26.1424 28.004 27.252 28.1245 27.252 29.0607C27.252 29.8307 26.1999 30.7213 26.1999 31.7184C26.1999 32.4878 26.7176 33.1219 27.5112 33.228C27.252 33.2886 27.0209 33.3338 26.7758 33.3338C25.3204 33.3338 23.8212 32.0803 23.8212 30.5857C23.8212 29.8458 24.1245 29.1966 24.5857 28.7285C24.9887 29.0908 25.3926 29.3329 25.6515 29.3329C25.8826 29.3329 25.9836 29.2117 25.9836 29.0309C25.9836 28.4711 23.8647 27.9585 23.8647 26.7649ZM26.8369 59.0681C27.2445 59.0681 27.9443 58.9294 28.4953 58.0042C28.1806 57.2725 27.9557 55.7899 27.9237 55.251C27.7616 52.4936 28.7761 49.8996 29.8863 49.8284C30.7005 49.7773 31.3515 50.5844 31.4264 51.8893C31.6274 55.3273 30.5331 56.7623 29.9876 57.9981C30.0798 58.4795 30.8557 59.2961 31.5901 59.2961C31.8614 59.2961 32.1882 59.1544 32.27 59.039C32.1944 58.7715 32.1574 58.4937 32.1601 58.2148C32.1601 56.2241 33.3838 54.5429 34.4421 54.5429C35.2854 54.5429 35.7717 55.7095 35.7717 56.4805C35.7717 57.3893 35.0389 58.1302 33.9532 58.8418C34.1447 59.039 34.4957 59.1828 34.7964 59.1828C36.3443 59.1828 37.1578 57.2205 37.7566 55.4253C37.8651 55.0839 38.0566 54.6004 38.4351 54.6004C39.0875 54.6004 39.3601 59.0962 40.4445 59.0962C40.9073 59.0962 41.2864 58.1001 41.2864 57.3342C41.2864 56.7644 41.0969 56.7076 41.0969 55.881C41.0969 54.9716 41.5584 54.2029 42.1846 54.2029C42.5637 54.2029 42.7003 54.6008 42.7003 55.0842C42.7003 56.9062 41.4512 60.2928 39.6049 60.2928C38.2178 60.2928 38.3256 57.7865 37.8386 57.7865C37.2941 57.7865 36.5332 60.322 33.845 60.322C33.409 60.322 32.9481 60.0943 32.569 59.6365C31.9166 60.0943 31.3721 60.2928 30.7472 60.2928C29.7432 60.2928 29.3082 59.2105 28.9019 59.2105C28.412 59.2105 27.8707 60.322 26.2395 60.322C24.9347 60.322 24.7177 58.5011 24.2572 58.5011C23.8493 58.5011 23.2247 60.322 22.5462 60.322C21.4029 60.322 21.1607 57.1633 20.1551 57.1633C19.3667 57.1633 16.8785 60.3706 16.2023 60.2973C15.9307 60.2672 15.8169 60.0549 15.8454 59.7697C15.8836 59.3762 16.2065 58.3227 16.3389 57.8228C16.5585 56.9592 16.7602 56.0087 16.8726 55.7064C16.9841 55.4016 17.287 55.1842 17.5279 55.2075C17.6498 55.2198 17.6864 55.4581 17.7244 55.654C17.8606 56.36 18.0535 57.0767 18.2698 57.0767C18.6509 57.0767 19.9116 54.5429 20.644 54.5429C21.5412 54.5429 21.6494 58.5281 22.8714 58.5281C23.2793 58.5281 23.5797 58.0155 23.85 57.3896C23.8777 56.3354 24.1487 54.8291 24.9635 54.8291C25.5351 54.8291 25.8064 56.1649 25.3979 57.3338C25.3975 58.726 26.2663 59.0681 26.8369 59.0681ZM47.1002 56.3939C47.1002 55.6828 46.4766 54.6857 45.553 54.6857C44.3306 54.6857 43.1367 56.0803 43.1367 58.0152C43.1367 59.7495 44.1662 60.3213 45.1987 60.3213C46.9917 60.3213 48.0794 58.7815 48.6491 57.5026C48.9217 58.3562 49.0819 60.3213 49.763 60.3213C50.0343 60.3213 50.2245 60.1785 50.552 59.4098C51.3645 57.5026 52.1522 55.3116 53.2402 55.3116C53.6461 55.3116 53.403 56.0803 54.3802 56.0803C54.8424 56.0803 55.1673 55.6828 55.1673 55.225C55.1673 54.5706 54.5972 54.0591 53.7279 54.0591C51.1762 54.0591 50.633 58.0724 50.2245 58.0724C49.5453 58.0724 49.763 54.8569 49.2734 54.8569C48.8387 54.8569 48.621 55.3982 48.5668 55.653C48.2131 57.1328 47.2097 59.268 45.687 59.268C45.3347 59.268 44.7097 59.1253 44.7097 58.7551C44.7097 58.3562 47.1002 58.3011 47.1002 56.3939ZM30.5465 52.658C30.4998 51.8636 30.3155 51.5048 29.9089 51.5332C29.3673 51.5681 29.1179 53.3503 29.2278 55.2236C29.298 56.447 29.4716 56.6343 29.634 56.623C29.9334 56.6045 30.6505 54.42 30.5465 52.658ZM26.13 50.9881C26.1042 50.5313 25.7512 50.219 25.2894 50.219C24.7729 50.219 24.2827 50.7878 24.3392 51.4989C24.3392 51.9252 24.637 52.3529 25.1547 52.3529C25.7515 52.3529 26.1859 51.6431 26.13 50.9881ZM34.5791 56.7918C34.5791 56.3097 34.3339 55.9094 34.0359 55.9094C33.7901 55.9094 33.2214 56.194 33.2214 57.1044C33.2214 57.8159 33.4646 58.1563 33.575 58.3011C34.3607 58.0436 34.5791 57.3602 34.5791 56.7918ZM45.1987 55.8255C45.7694 55.8255 45.9334 56.535 45.7975 56.9627C45.6608 57.3889 45.1732 57.8724 44.4117 58.0149C44.2489 57.5872 44.1665 55.8255 45.1987 55.8255ZM7.83848 56.2806C7.81136 55.1116 7.86594 53.9461 8.32842 52.2961C8.57224 51.4154 8.79056 51.1004 9.54981 50.9312C10.1473 50.8169 10.094 51.4702 9.95836 52.2392C9.65995 53.9457 9.52203 54.7709 9.63217 56.7069C9.73872 58.7548 10.6369 59.5522 11.6138 59.5522C13.0806 59.5813 13.733 58.3014 14.0043 56.4508C14.2207 54.9709 14.0576 54.258 13.9216 53.8043C13.8409 53.5482 13.6235 52.9785 13.5418 52.5529C13.434 51.4705 13.9216 50.9607 14.3301 50.8172C14.8194 50.6741 15.0103 50.9316 15.1989 51.5298C15.4443 52.4395 15.4715 53.6328 15.3894 55.3393C15.2812 57.6721 14.1671 60.4921 11.3968 60.4339C9.00628 60.3784 7.94863 58.7551 7.83848 56.2806Z" fill="#2267AE"/>
</g>
</svg>
